<svg width="175" height="54" viewBox="0 0 175 54" fill="none" xmlns="http://www.w3.org/2000/svg">
<rect width="175" height="54" rx="8" fill="black"/>
<path fill-rule="evenodd" clip-rule="evenodd" d="M25.2799 13.2595C24.957 13.6064 24.7715 14.1405 24.7715 14.8344V39.5175C24.7715 40.2115 24.957 40.7455 25.2919 41.0804L25.3794 41.1543L39.21 27.3238V27.0131L25.3674 13.1855L25.2799 13.2595Z" fill="url(#paint0_linear_2906_15532)"/>
<path fill-rule="evenodd" clip-rule="evenodd" d="M43.8124 31.9507L39.1992 27.336V27.0131L43.8139 22.3984L43.9135 22.4603L49.3715 25.5619C50.9343 26.4429 50.9343 27.8941 49.3715 28.7872L43.9135 31.8888C43.912 31.8888 43.8124 31.9507 43.8124 31.9507Z" fill="url(#paint1_linear_2906_15532)"/>
<path fill-rule="evenodd" clip-rule="evenodd" d="M43.912 31.8881L39.1993 27.1738L25.2812 41.0918C25.7896 41.6379 26.645 41.6998 27.6014 41.1658L43.912 31.8881Z" fill="url(#paint2_linear_2906_15532)"/>
<path fill-rule="evenodd" clip-rule="evenodd" d="M43.912 22.4643L27.6014 13.1987C26.6465 12.6526 25.7896 12.7265 25.2812 13.2726L39.1978 27.1771L43.912 22.4643Z" fill="url(#paint3_linear_2906_15532)"/>
<path opacity="0.2" fill-rule="evenodd" clip-rule="evenodd" d="M43.8121 31.7891L27.6131 40.9928C26.708 41.5133 25.9009 41.4771 25.3805 41.0049L25.293 41.0924L25.3805 41.1663C25.9009 41.637 26.708 41.6747 27.6131 41.1542L43.9237 31.8886L43.8121 31.7891Z" fill="black"/>
<path opacity="0.12" fill-rule="evenodd" clip-rule="evenodd" d="M49.3704 28.6251L43.8008 31.7885L43.9003 31.8881L49.3583 28.7865C50.1398 28.3399 50.5245 27.7576 50.5245 27.1738C50.4747 27.7079 50.0779 28.2162 49.3704 28.6251Z" fill="black"/>
<path opacity="0.25" fill-rule="evenodd" clip-rule="evenodd" d="M27.6 13.3583L49.3686 25.7255C50.0762 26.1223 50.4729 26.6427 50.5348 27.1768C50.5348 26.5944 50.1501 26.0106 49.3686 25.5641L27.6 13.1969C26.0372 12.3038 24.7715 13.0475 24.7715 14.8337V14.9951C24.7715 13.209 26.0372 12.4773 27.6 13.3583Z" fill="white"/>
<path d="M68.812 14.488H73.024V15.136C73.024 16.336 72.64 17.308 71.872 18.052C71.104 18.796 70.112 19.168 68.896 19.168C67.6 19.168 66.524 18.748 65.668 17.908C64.82 17.06 64.396 16.028 64.396 14.812C64.396 13.588 64.816 12.552 65.656 11.704C66.504 10.856 67.552 10.432 68.8 10.432C69.576 10.432 70.288 10.608 70.936 10.96C71.584 11.312 72.092 11.788 72.46 12.388L71.044 13.204C70.844 12.86 70.54 12.58 70.132 12.364C69.724 12.148 69.276 12.04 68.788 12.04C67.98 12.04 67.32 12.304 66.808 12.832C66.296 13.344 66.04 14.004 66.04 14.812C66.04 15.604 66.3 16.26 66.82 16.78C67.34 17.292 68.036 17.548 68.908 17.548C69.54 17.548 70.068 17.408 70.492 17.128C70.916 16.848 71.204 16.456 71.356 15.952H68.812V14.488ZM79.9619 16.636H75.4379C75.6379 17.388 76.2019 17.764 77.1299 17.764C77.7219 17.764 78.1699 17.564 78.4739 17.164L79.7219 17.884C79.1299 18.74 78.2579 19.168 77.1059 19.168C76.1139 19.168 75.3179 18.868 74.7179 18.268C74.1179 17.668 73.8179 16.912 73.8179 16C73.8179 15.104 74.1139 14.352 74.7059 13.744C75.2899 13.136 76.0499 12.832 76.9859 12.832C77.8739 12.832 78.5979 13.136 79.1579 13.744C79.7339 14.352 80.0219 15.104 80.0219 16C80.0219 16.168 80.0019 16.38 79.9619 16.636ZM75.4139 15.436H78.4739C78.3859 15.044 78.2059 14.744 77.9339 14.536C77.6699 14.328 77.3539 14.224 76.9859 14.224C76.5699 14.224 76.2259 14.332 75.9539 14.548C75.6819 14.756 75.5019 15.052 75.4139 15.436ZM84.3588 13V14.488H83.0028V16.984C83.0028 17.192 83.0548 17.344 83.1588 17.44C83.2628 17.536 83.4148 17.592 83.6148 17.608C83.8148 17.616 84.0628 17.612 84.3588 17.596V19C83.3108 19.12 82.5628 19.024 82.1148 18.712C81.6748 18.392 81.4548 17.816 81.4548 16.984V14.488H80.4108V13H81.4548V11.788L83.0028 11.32V13H84.3588ZM89.3119 12.28C89.0559 12.28 88.8319 12.188 88.6399 12.004C88.4559 11.812 88.3639 11.588 88.3639 11.332C88.3639 11.076 88.4559 10.852 88.6399 10.66C88.8319 10.468 89.0559 10.372 89.3119 10.372C89.5759 10.372 89.7999 10.468 89.9839 10.66C90.1759 10.852 90.2719 11.076 90.2719 11.332C90.2719 11.588 90.1759 11.812 89.9839 12.004C89.7999 12.188 89.5759 12.28 89.3119 12.28ZM90.0919 19H88.5439V13H90.0919V19ZM94.9408 13V14.488H93.5848V16.984C93.5848 17.192 93.6368 17.344 93.7408 17.44C93.8448 17.536 93.9968 17.592 94.1968 17.608C94.3968 17.616 94.6448 17.612 94.9408 17.596V19C93.8928 19.12 93.1448 19.024 92.6968 18.712C92.2568 18.392 92.0368 17.816 92.0368 16.984V14.488H90.9928V13H92.0368V11.788L93.5848 11.32V13H94.9408ZM104.238 18.256C103.63 18.864 102.878 19.168 101.982 19.168C101.086 19.168 100.334 18.864 99.726 18.256C99.118 17.648 98.814 16.896 98.814 16C98.814 15.112 99.118 14.364 99.726 13.756C100.342 13.14 101.094 12.832 101.982 12.832C102.87 12.832 103.622 13.14 104.238 13.756C104.854 14.372 105.162 15.12 105.162 16C105.162 16.888 104.854 17.64 104.238 18.256ZM100.818 17.188C101.13 17.5 101.518 17.656 101.982 17.656C102.446 17.656 102.834 17.5 103.146 17.188C103.458 16.876 103.614 16.48 103.614 16C103.614 15.52 103.458 15.124 103.146 14.812C102.834 14.5 102.446 14.344 101.982 14.344C101.518 14.344 101.13 14.5 100.818 14.812C100.514 15.132 100.362 15.528 100.362 16C100.362 16.472 100.514 16.868 100.818 17.188ZM109.587 12.832C110.251 12.832 110.791 13.052 111.207 13.492C111.639 13.94 111.855 14.548 111.855 15.316V19H110.307V15.508C110.307 15.116 110.199 14.812 109.983 14.596C109.775 14.38 109.487 14.272 109.119 14.272C108.711 14.272 108.387 14.4 108.147 14.656C107.915 14.904 107.799 15.272 107.799 15.76V19H106.251V13H107.799V13.672C108.167 13.112 108.763 12.832 109.587 12.832Z" fill="#E6E6E6"/>
<path d="M70.416 33.984H76.032V34.848C76.032 36.448 75.52 37.744 74.496 38.736C73.472 39.728 72.1493 40.224 70.528 40.224C68.8 40.224 67.3653 39.664 66.224 38.544C65.0933 37.4133 64.528 36.0373 64.528 34.416C64.528 32.784 65.088 31.4027 66.208 30.272C67.3387 29.1413 68.736 28.576 70.4 28.576C71.4347 28.576 72.384 28.8107 73.248 29.28C74.112 29.7493 74.7893 30.384 75.28 31.184L73.392 32.272C73.1253 31.8133 72.72 31.44 72.176 31.152C71.632 30.864 71.0347 30.72 70.384 30.72C69.3067 30.72 68.4267 31.072 67.744 31.776C67.0613 32.4587 66.72 33.3387 66.72 34.416C66.72 35.472 67.0667 36.3467 67.76 37.04C68.4533 37.7227 69.3813 38.064 70.544 38.064C71.3867 38.064 72.0907 37.8773 72.656 37.504C73.2213 37.1307 73.6053 36.608 73.808 35.936H70.416V33.984ZM84.3225 39.008C83.5118 39.8187 82.5092 40.224 81.3145 40.224C80.1198 40.224 79.1172 39.8187 78.3065 39.008C77.4958 38.1973 77.0905 37.1947 77.0905 36C77.0905 34.816 77.4958 33.8187 78.3065 33.008C79.1278 32.1867 80.1305 31.776 81.3145 31.776C82.4985 31.776 83.5012 32.1867 84.3225 33.008C85.1438 33.8293 85.5545 34.8267 85.5545 36C85.5545 37.184 85.1438 38.1867 84.3225 39.008ZM79.7625 37.584C80.1785 38 80.6958 38.208 81.3145 38.208C81.9332 38.208 82.4505 38 82.8665 37.584C83.2825 37.168 83.4905 36.64 83.4905 36C83.4905 35.36 83.2825 34.832 82.8665 34.416C82.4505 34 81.9332 33.792 81.3145 33.792C80.6958 33.792 80.1785 34 79.7625 34.416C79.3572 34.8427 79.1545 35.3707 79.1545 36C79.1545 36.6293 79.3572 37.1573 79.7625 37.584ZM93.8225 39.008C93.0118 39.8187 92.0092 40.224 90.8145 40.224C89.6198 40.224 88.6172 39.8187 87.8065 39.008C86.9958 38.1973 86.5905 37.1947 86.5905 36C86.5905 34.816 86.9958 33.8187 87.8065 33.008C88.6278 32.1867 89.6305 31.776 90.8145 31.776C91.9985 31.776 93.0012 32.1867 93.8225 33.008C94.6438 33.8293 95.0545 34.8267 95.0545 36C95.0545 37.184 94.6438 38.1867 93.8225 39.008ZM89.2625 37.584C89.6785 38 90.1958 38.208 90.8145 38.208C91.4332 38.208 91.9505 38 92.3665 37.584C92.7825 37.168 92.9905 36.64 92.9905 36C92.9905 35.36 92.7825 34.832 92.3665 34.416C91.9505 34 91.4332 33.792 90.8145 33.792C90.1958 33.792 89.6785 34 89.2625 34.416C88.8572 34.8427 88.6545 35.3707 88.6545 36C88.6545 36.6293 88.8572 37.1573 89.2625 37.584ZM102.635 32.992V32H104.651V39.616C104.651 40.8427 104.24 41.7867 103.419 42.448C102.608 43.0987 101.627 43.424 100.475 43.424C98.6612 43.424 97.3972 42.7733 96.6825 41.472L98.4425 40.464C98.8372 41.2107 99.5358 41.584 100.539 41.584C101.189 41.584 101.701 41.4133 102.075 41.072C102.448 40.7307 102.635 40.2453 102.635 39.616V38.752C102.027 39.5627 101.173 39.968 100.075 39.968C98.9438 39.968 97.9945 39.5733 97.2265 38.784C96.4692 37.9733 96.0905 37.0027 96.0905 35.872C96.0905 34.7413 96.4745 33.776 97.2425 32.976C98.0105 32.176 98.9545 31.776 100.075 31.776C101.173 31.776 102.027 32.1813 102.635 32.992ZM101.995 37.456C102.421 37.04 102.635 36.512 102.635 35.872C102.635 35.232 102.421 34.7147 101.995 34.32C101.579 33.904 101.045 33.696 100.395 33.696C99.7545 33.696 99.2158 33.904 98.7785 34.32C98.3625 34.7147 98.1545 35.232 98.1545 35.872C98.1545 36.512 98.3625 37.04 98.7785 37.456C99.2052 37.8613 99.7438 38.064 100.395 38.064C101.045 38.064 101.579 37.8613 101.995 37.456ZM108.586 40H106.522V28.32H108.586V40ZM118.251 36.848H112.219C112.486 37.8507 113.238 38.352 114.475 38.352C115.265 38.352 115.862 38.0853 116.267 37.552L117.931 38.512C117.142 39.6533 115.979 40.224 114.443 40.224C113.121 40.224 112.059 39.824 111.259 39.024C110.459 38.224 110.059 37.216 110.059 36C110.059 34.8053 110.454 33.8027 111.243 32.992C112.022 32.1813 113.035 31.776 114.283 31.776C115.467 31.776 116.433 32.1813 117.179 32.992C117.947 33.8027 118.331 34.8053 118.331 36C118.331 36.224 118.305 36.5067 118.251 36.848ZM112.187 35.248H116.267C116.15 34.7253 115.91 34.3253 115.547 34.048C115.195 33.7707 114.774 33.632 114.283 33.632C113.729 33.632 113.27 33.776 112.907 34.064C112.545 34.3413 112.305 34.736 112.187 35.248ZM123.868 28.8H128.044C129.111 28.8 130.017 29.1627 130.764 29.888C131.5 30.6133 131.868 31.504 131.868 32.56C131.868 33.616 131.5 34.5067 130.764 35.232C130.017 35.9573 129.111 36.32 128.044 36.32H126.076V40H123.868V28.8ZM126.076 34.256H128.044C128.513 34.256 128.903 34.096 129.212 33.776C129.521 33.4453 129.676 33.04 129.676 32.56C129.676 32.0693 129.521 31.664 129.212 31.344C128.903 31.024 128.513 30.864 128.044 30.864H126.076V34.256ZM135.274 40H133.21V28.32H135.274V40ZM143.243 32.944V32H145.307V40H143.243V39.056C142.624 39.8347 141.755 40.224 140.635 40.224C139.568 40.224 138.651 39.8187 137.883 39.008C137.125 38.1867 136.747 37.184 136.747 36C136.747 34.8267 137.125 33.8293 137.883 33.008C138.651 32.1867 139.568 31.776 140.635 31.776C141.755 31.776 142.624 32.1653 143.243 32.944ZM139.435 37.632C139.851 38.048 140.379 38.256 141.019 38.256C141.659 38.256 142.187 38.048 142.603 37.632C143.029 37.2053 143.243 36.6613 143.243 36C143.243 35.3387 143.029 34.8 142.603 34.384C142.187 33.9573 141.659 33.744 141.019 33.744C140.379 33.744 139.851 33.9573 139.435 34.384C139.019 34.8 138.811 35.3387 138.811 36C138.811 36.6613 139.019 37.2053 139.435 37.632ZM150.618 37.376L152.394 32H154.602L151.69 40C151.274 41.152 150.72 41.984 150.026 42.496C149.344 43.0187 148.49 43.2533 147.466 43.2V41.28C148.01 41.2907 148.448 41.1733 148.778 40.928C149.109 40.6827 149.37 40.288 149.562 39.744L146.282 32H148.538L150.618 37.376Z" fill="white"/>
<defs>
<linearGradient id="paint0_linear_2906_15532" x1="37.968" y1="14.5691" x2="15.8139" y2="20.4721" gradientUnits="userSpaceOnUse">
<stop stop-color="#00A0FF"/>
<stop offset="0.007" stop-color="#00A1FF"/>
<stop offset="0.26" stop-color="#00BEFF"/>
<stop offset="0.512" stop-color="#00D2FF"/>
<stop offset="0.76" stop-color="#00DFFF"/>
<stop offset="1" stop-color="#00E3FF"/>
</linearGradient>
<linearGradient id="paint1_linear_2906_15532" x1="51.4052" y1="27.1752" x2="24.393" y2="27.1752" gradientUnits="userSpaceOnUse">
<stop stop-color="#FFE000"/>
<stop offset="0.409" stop-color="#FFBD00"/>
<stop offset="0.775" stop-color="#FFA500"/>
<stop offset="1" stop-color="#FF9C00"/>
</linearGradient>
<linearGradient id="paint2_linear_2906_15532" x1="41.3494" y1="29.7384" x2="23.564" y2="59.6724" gradientUnits="userSpaceOnUse">
<stop stop-color="#FF3A44"/>
<stop offset="1" stop-color="#C31162"/>
</linearGradient>
<linearGradient id="paint3_linear_2906_15532" x1="21.7777" y1="5.04975" x2="29.7124" y2="18.4187" gradientUnits="userSpaceOnUse">
<stop stop-color="#32A071"/>
<stop offset="0.069" stop-color="#2DA771"/>
<stop offset="0.476" stop-color="#15CF74"/>
<stop offset="0.801" stop-color="#06E775"/>
<stop offset="1" stop-color="#00F076"/>
</linearGradient>
</defs>
</svg>
