<svg width="20" height="20" viewBox="0 0 20 20" fill="none" xmlns="http://www.w3.org/2000/svg">
<path d="M4.28344 18.9204C5.39353 18.9204 6.29344 18.0205 6.29344 16.9104C6.29344 15.8003 5.39353 14.9004 4.28344 14.9004C3.17335 14.9004 2.27344 15.8003 2.27344 16.9104C2.27344 18.0205 3.17335 18.9204 4.28344 18.9204Z" stroke="black" stroke-width="1.5" stroke-linecap="round" stroke-linejoin="round"/>
<path d="M13.8381 18.9204C14.9482 18.9204 15.8481 18.0205 15.8481 16.9104C15.8481 15.8003 14.9482 14.9004 13.8381 14.9004C12.728 14.9004 11.8281 15.8003 11.8281 16.9104C11.8281 18.0205 12.728 18.9204 13.8381 18.9204Z" stroke="black" stroke-width="1.5" stroke-linecap="round" stroke-linejoin="round"/>
<path d="M2.98 4.35L2.6 1.51L1 1" stroke="black" stroke-width="1.5" stroke-linecap="round" stroke-linejoin="round"/>
<path d="M14.3219 11.6495H3.92188L2.92188 4.01953H18.3219L14.3219 11.6495Z" stroke="black" stroke-width="1.5" stroke-linecap="round" stroke-linejoin="round"/>
</svg>
