<svg width="25" height="24" viewBox="0 0 25 24" fill="none" xmlns="http://www.w3.org/2000/svg">
<path d="M11.5 13.5858V2C11.5 1.44771 11.9477 1 12.5 1C13.0523 1 13.5 1.44771 13.5 2V13.5858L16.7929 10.2929C17.1834 9.90237 17.8166 9.90237 18.2071 10.2929C18.5976 10.6834 18.5976 11.3166 18.2071 11.7071L13.2071 16.7071C12.8166 17.0976 12.1834 17.0976 11.7929 16.7071L6.79289 11.7071C6.40237 11.3166 6.40237 10.6834 6.79289 10.2929C7.18342 9.90237 7.81658 9.90237 8.20711 10.2929L11.5 13.5858Z" fill="black"/>
<path d="M2.5 15C3.05228 15 3.5 15.4477 3.5 16V20C3.5 20.5523 3.94772 21 4.5 21H20.5C21.0523 21 21.5 20.5523 21.5 20V16C21.5 15.4477 21.9477 15 22.5 15C23.0523 15 23.5 15.4477 23.5 16V20C23.5 21.6569 22.1569 23 20.5 23H4.5C2.84315 23 1.5 21.6569 1.5 20V16C1.5 15.4477 1.94772 15 2.5 15Z" fill="black"/>
</svg>
