<svg width="269" height="225" viewBox="0 0 269 225" fill="none" xmlns="http://www.w3.org/2000/svg">
<path opacity="0.5" d="M175.473 67.5277C178.975 71.6515 181.436 76.2853 183.79 81.0101C189.467 92.2516 194.944 103.476 198.861 115.465C201.066 122.184 202.965 128.976 203.546 135.953C203.891 139.396 202.793 142.008 199.826 144.155C194.732 147.92 189.038 150.327 183.329 152.933C170.366 158.712 157.325 164.183 144.099 169.436C128.501 175.584 112.734 181.315 96.6278 186.214C92.5247 187.457 88.3444 188.392 84.0868 189.019C76.2762 190.235 71.4602 187.601 67.6766 180.542C61.5092 169.156 57.102 157.024 53.2152 144.636C51.2867 138.242 49.5574 131.866 47.4147 125.655C44.0389 115.821 44.2485 106.305 48.2727 96.7244C52.0828 87.3257 55.1259 77.4577 59.1352 68.0767C63.0076 59.1854 66.6957 50.077 72.3935 42.2505C73.6306 40.4529 74.9599 38.7639 76.3813 37.1834C78.9178 34.0956 82.3014 33.0901 86.101 33.2255C93.6081 33.3877 101.118 34.8549 108.399 36.7034C120.202 39.7548 131.273 44.548 142.68 48.8692C148.721 51.2102 154.747 53.7506 160.544 56.6722C165.958 59.3592 171.327 62.6444 175.473 67.5277Z" fill="#D9C8D9"/>
<g clip-path="url(#clip0_3872_14752)">
<path d="M98.6445 163.647C90.2387 164.138 81.8094 164.602 73.5101 165.951C71.0501 166.436 68.4808 166.779 66.3018 168.035C66.1037 168.183 65.7932 168.387 65.7785 168.623C65.9618 169.082 66.4733 169.413 66.8724 169.703C68.1172 170.519 69.495 171.027 70.9289 171.429C73.5751 172.16 76.3307 172.606 79.0626 172.973C90.15 174.416 101.406 174.844 112.591 175.258C124.045 175.713 151.415 176.133 163.185 176.379C149.168 177.313 135.035 177.65 120.982 177.597C109.705 177.52 98.4227 177.227 87.1845 176.184C82.9565 175.784 78.7167 175.297 74.539 174.445C71.5291 173.795 68.3419 173.115 65.7607 171.317C63.9986 170.122 62.9815 168.207 65.0482 166.69C70.5978 163.083 91.3327 163.435 98.6474 163.65L98.6445 163.647Z" fill="#DFDFDF"/>
<path d="M202.476 165.15C210.299 164.878 218.143 164.884 225.955 165.478C227.915 165.638 229.875 165.833 231.845 166.187C233.515 166.554 237.56 167.095 237.184 169.543C236.735 171.512 232.983 172.686 231.274 173.301C225.588 175.111 219.634 175.788 213.741 176.276C207.863 176.728 201.985 176.852 196.102 176.752C190.227 176.651 184.358 176.367 178.516 175.72C194.068 174.966 209.685 174.948 225.065 172.535C226.96 172.21 228.841 171.832 230.662 171.308C232.176 170.847 233.737 170.371 235.029 169.472C235.174 169.363 235.292 169.245 235.333 169.18C235.36 169.147 235.36 169.138 235.354 169.162C235.348 169.183 235.354 169.239 235.366 169.265C235.168 169.023 234.674 168.778 234.201 168.597C233.37 168.278 232.442 168.047 231.513 167.846C221.966 166.051 212.192 165.741 202.473 165.147L202.476 165.15Z" fill="#DFDFDF"/>
<path d="M0.0390625 122.01H241.345L165.966 151.57C165.966 151.57 56.4074 140.625 53.9327 140.941C51.458 141.257 0.0390625 122.01 0.0390625 122.01Z" fill="#DFDFDF"/>
<path d="M144.625 132.241C144.625 132.241 156.756 134.078 161.472 112.707C161.519 112.482 161.776 112.506 161.759 112.731C161.351 117.955 159.246 132.265 148.495 136.387" fill="#62425B"/>
<path d="M152.292 134.281C151.165 135.127 149.909 135.839 148.498 136.38L144.625 132.238C144.625 132.238 148.072 132.761 152.002 130.012C152.197 131.543 152.277 132.998 152.289 134.281H152.292Z" fill="#FDDAC2"/>
<path d="M152.292 134.281C151.165 135.127 149.909 135.839 148.498 136.38L144.625 132.238C144.625 132.238 148.072 132.761 152.002 130.012C152.197 131.543 152.277 132.998 152.289 134.281H152.292Z" fill="#FDDAC2"/>
<path d="M96.9297 98.3535C96.9297 98.3535 92.2404 117.314 83.1074 141.636C83.0601 141.751 83.0453 141.872 82.9625 141.97C82.5249 142.511 80.9993 144.48 80.4937 145.887C80.334 146.337 80.6652 146.807 81.1442 146.795L90.5285 146.582C90.8331 146.576 91.0992 146.363 91.1672 146.065C91.995 142.606 104.029 124.597 107.464 104.991" fill="#EB6162"/>
<path d="M83.1016 141.639C83.1016 141.639 85.1623 141.482 88.3555 142.958C88.3555 142.958 86.416 141.37 83.3617 140.95L83.1016 141.642V141.639Z" fill="#FDDAC2"/>
<path d="M82.3713 146.77C82.9242 145.534 83.9709 143.08 83.4357 143.479C82.9242 143.854 82.1171 145.759 81.7031 146.787L82.3713 146.77Z" fill="#FDDAC2"/>
<path d="M124.117 74.9562C124.117 74.9562 118.709 92.2939 135.068 107.358C151.433 122.428 147.193 144.623 142.82 144.623C138.447 144.623 110.534 145.918 105.856 145.918C101.179 145.918 91.3275 112.384 93.9234 100.552C96.5134 88.7282 92.6875 72.6943 92.6875 72.6943" fill="#EB6162"/>
<path d="M95.5698 137.138C93.6361 130.411 92.0898 122.839 91.6641 116.698C95.1499 105.528 96.9298 98.3555 96.9298 98.3555L107.311 104.899C106.045 106.004 105.883 107.217 106.515 109.537C103.919 120.303 99.1266 130.252 95.5757 137.135L95.5698 137.141V137.138Z" fill="url(#paint0_linear_3872_14752)"/>
<path d="M94.6718 99.6594C96.7444 90.2159 94.7191 78.0996 93.8203 73.5996L116.406 75.3263L123.546 76.9377C123.248 79.0605 123.047 83.0342 123.626 86.801C122.446 88.5513 121.122 89.8493 117.465 91.7209C109.851 95.6118 107.923 95.7714 109.213 100.467C110.502 105.162 114.085 107.917 111.56 114.076C109.248 119.726 112.734 136.972 120.214 144.654C113.671 144.861 108.24 145.023 106.599 145.023C101.922 145.023 92.07 111.489 94.6659 99.6565L94.6718 99.6624V99.6594Z" fill="#EB6162"/>
<path d="M117.477 40.8226C117.477 40.8226 119.254 33.9632 121.69 34.6669C122.674 34.9478 124.262 37.0026 127.278 45.1511" fill="#62425B"/>
<path d="M117.477 40.8211C117.477 40.8211 117.666 40.0849 118.006 39.124C120.401 39.7065 124.244 41.3208 125.436 43.1125C125.672 43.4644 125.936 44.0113 126.219 44.6825L117.48 40.8211H117.477Z" fill="#462B42"/>
<path d="M115.651 76.2227L123.545 77.7602C123.356 79.1232 123.205 80.9297 123.279 83.0496C116.266 84.6196 107.704 85.548 104.129 80.4596C104.129 80.4596 95.8417 81.3673 94.0766 78.6708C93.9436 78.4698 93.8224 78.2747 93.7011 78.0825C93.4705 76.6337 93.2399 75.4067 93.0625 74.499L115.648 76.2257L115.651 76.2227Z" fill="#62425B"/>
<path d="M133.803 78.8007C133.199 79.3418 131.133 79.2146 129.326 78.8924C122.248 81.1276 109.434 85.1486 104.538 78.7741C104.538 78.7741 96.2977 80.0336 94.4202 77.4081L94.4084 77.4022C89.7842 70.9479 92.1554 68.8368 92.6906 67.3171C93.2257 65.7974 89.1781 52.7231 89.9912 50.6003C90.7954 48.4774 96.481 41.6594 100.05 41.21C101.608 41.0148 104.248 40.9794 106.726 41.003C109.919 41.0355 112.846 41.1627 112.846 41.1627C112.846 41.1627 115.273 40.2402 117.089 40.0096C117.37 39.9712 117.636 39.9534 117.875 39.9564C119.67 39.9771 125.264 41.9403 126.754 44.1725C128.244 46.3989 130.994 56.6082 130.994 56.6082C130.994 56.6082 137.439 58.2018 138.303 59.7599C139.166 61.3211 136.011 76.8168 133.803 78.8007V78.8007Z" fill="#EB6162"/>
<path d="M131.453 64.2031C131.453 64.2031 131.757 66.734 130.758 72.6976L131.453 64.2031V64.2031Z" fill="#B76632"/>
<path d="M138.296 59.7545C139.159 61.3126 136.004 76.8084 133.796 78.7952C133.193 79.3363 131.126 79.2091 129.319 78.8869C122.957 80.8944 111.958 84.3419 106.246 80.3888C105.643 79.901 105.096 79.3865 104.605 78.8573C104.581 78.8277 104.552 78.8011 104.531 78.7716C99.8595 73.6329 100.554 66.9982 105.589 62.6934C111.178 57.9125 115.636 59.6953 116.609 56.9397C117.582 54.1841 116.038 49.4062 114.826 48.2797C113.614 47.1533 114.746 45.2758 112.851 43.4338C110.959 41.5918 108.472 41.033 108.466 41.033C110.911 41.0803 112.851 41.1661 112.851 41.1661C112.851 41.1661 114.853 40.4062 116.579 40.0898C115.539 40.5954 116.31 40.7403 117.011 41.033C117.712 41.3257 116.499 42.2245 116.958 42.603C117.416 42.9814 118.392 43.6556 118.333 44.6904C118.279 45.7252 118.223 46.5708 119.438 48.6493C120.654 50.7278 120.491 54.6749 122.815 55.7512C125.133 56.8333 130.996 56.6086 130.996 56.6086C130.996 56.6086 137.441 58.2022 138.305 59.7633L138.293 59.7515L138.296 59.7545Z" fill="white"/>
<path d="M130.611 56.6188C130.611 56.6188 124.984 56.8554 115.656 60.7729C115.656 60.7729 124.299 56.2611 130.611 56.6188Z" fill="#462B42"/>
<path d="M127.313 56.1357C127.313 56.1357 121.166 56.8217 111.562 60.5677C111.562 60.5677 119.918 56.8217 127.313 56.1357Z" fill="#462B42"/>
<path d="M125.272 59.3706C125.272 59.3706 132.546 55.5447 135.913 56.5973C139.281 57.6499 134.003 64.8434 131.564 65.1479C129.125 65.4524 124.238 61.4757 125.275 59.3706H125.272Z" fill="#462B42"/>
<path d="M114.539 80.4073C118.868 80.2742 129.852 76.2236 129.852 76.2236C130.99 77.22 132.016 77.5423 132.016 77.5423C132.285 77.6458 132.604 77.7433 132.959 77.8084C132.959 77.8084 132.459 77.8261 131.853 77.6753L130.248 79.0265L129.316 78.8817L131.416 77.8409C130.857 77.4713 130.218 76.6376 129.967 76.3449C129.949 76.3508 120.949 80.1826 114.545 80.4073" fill="#462B42"/>
<path d="M92.5941 67.541C92.5822 67.5707 92.5703 67.5945 92.5703 67.5945C92.5703 67.5945 92.5822 67.5589 92.5941 67.541Z" fill="#C9D9DC"/>
<path d="M92.8831 63.6979C93.5158 63.6624 94.4087 61.3444 94.2017 62.7133C94.0303 63.8457 93.028 66.4416 92.6879 67.305C92.9186 66.5983 92.2208 63.5353 91.4609 60.2031C91.5644 60.6644 92.2888 63.7304 92.8772 63.7008L92.8831 63.6949V63.6979Z" fill="#FA515F"/>
<path d="M103.75 78.4522C103.761 78.2039 103.173 77.2105 103.537 77.5889C103.9 77.9733 104.527 78.7627 104.527 78.7627C104.527 78.7627 99.9415 79.4634 96.8281 78.7272C99.3945 79.1471 103.732 78.6976 103.75 78.4463V78.4522V78.4522Z" fill="#FA515F"/>
<path opacity="0.18" d="M133.407 67.3375C133.419 67.6598 133.564 67.9141 133.718 67.9082C133.875 67.9022 133.993 67.6391 133.978 67.3168C133.966 66.9946 133.821 66.7403 133.668 66.7462C133.511 66.7521 133.393 67.0152 133.407 67.3375Z" fill="#462B42"/>
<path opacity="0.18" d="M135.055 65.3941C135.067 65.7045 135.274 65.947 135.511 65.9411C135.747 65.9292 135.93 65.672 135.919 65.3586C135.907 65.0452 135.7 64.8057 135.463 64.8116C135.227 64.8235 135.043 65.0807 135.055 65.3941Z" fill="#462B42"/>
<path opacity="0.18" d="M135.172 68.1465C135.178 68.3121 135.282 68.4392 135.403 68.4333C135.524 68.4333 135.61 68.2884 135.604 68.1288C135.598 67.9632 135.494 67.8361 135.373 67.842C135.252 67.842 135.166 67.9869 135.172 68.1465Z" fill="#462B42"/>
<path opacity="0.18" d="M126.274 68.0249C126.292 68.3708 126.534 68.6457 126.815 68.6339C127.096 68.6221 127.315 68.3294 127.303 67.9835C127.291 67.6375 127.043 67.3626 126.762 67.3744C126.481 67.3862 126.262 67.6789 126.274 68.0249Z" fill="#462B42"/>
<path opacity="0.18" d="M124.258 65.9415C124.27 66.2076 124.495 66.4087 124.752 66.3968C125.018 66.385 125.219 66.1603 125.207 65.9031C125.196 65.637 124.971 65.4359 124.714 65.4478C124.448 65.4596 124.246 65.6843 124.258 65.9415Z" fill="#462B42"/>
<path opacity="0.18" d="M121.571 70.3085C121.589 70.6545 121.876 70.9176 122.222 70.8999C122.568 70.8821 122.831 70.5953 122.813 70.2494C122.795 69.9035 122.508 69.6403 122.162 69.6581C121.817 69.6758 121.553 69.9626 121.571 70.3085Z" fill="#462B42"/>
<path opacity="0.18" d="M123.742 69.1518C123.742 69.2731 123.852 69.3706 123.979 69.3647C124.1 69.3647 124.198 69.2553 124.192 69.1282C124.186 69.0011 124.082 68.9094 123.955 68.9153C123.828 68.9212 123.737 69.0247 123.742 69.1518Z" fill="#462B42"/>
<path opacity="0.18" d="M119.899 65.7568C119.905 65.9135 120.038 66.0318 120.191 66.0258C120.345 66.0199 120.466 65.8869 120.46 65.7331C120.454 65.5764 120.321 65.4582 120.168 65.4641C120.011 65.47 119.893 65.603 119.899 65.7568Z" fill="#462B42"/>
<path d="M106.906 50.454C106.906 50.454 108.822 51.2375 110.026 48.6416" stroke="#462B42" stroke-width="0.581867" stroke-miterlimit="10" stroke-linecap="round"/>
<path d="M102.674 42.7784C102.674 42.7784 95.3272 35.0054 92.5775 34.6772C89.8278 34.349 88.1189 43.8664 90.0112 52.9995" fill="#62425B"/>
<path d="M123.742 51.1475C123.742 51.1475 125.25 54.657 127.033 54.657C128.816 54.657 128.165 51.1475 128.165 51.1475" stroke="#462B42" stroke-width="0.581867" stroke-miterlimit="10" stroke-linecap="round"/>
<path d="M114.16 52.0166C114.16 52.0166 114.909 56.5343 111.99 57.7525C109.072 58.9795 107.375 54.6569 107.375 54.6569" stroke="#462B42" stroke-width="0.581867" stroke-miterlimit="10" stroke-linecap="round"/>
<path d="M133.784 141.706C132.33 121.631 133.193 111.055 137.554 109.881C148.159 121.666 147.873 136.535 145.235 142.235C144.434 143.232 143.659 144.012 143.009 144.589C142.947 144.601 142.882 144.618 142.826 144.618C141.256 144.618 136.664 144.784 131.203 144.997C131.36 143.776 133.793 141.7 133.793 141.7L133.787 141.706H133.784Z" fill="#62425B"/>
<path d="M150.132 133.265C150.132 133.265 152.837 114.978 141.173 110.209C134.4 107.442 132.865 117.884 134.592 141.706C134.592 141.706 129.838 145.757 133.188 145.866C136.537 145.975 142.152 145.866 142.152 145.866C142.152 145.866 148.453 142.085 150.138 133.259L150.132 133.265V133.265Z" fill="#EB6162"/>
<path d="M134.598 141.706C134.598 141.706 136.381 141.439 138.971 142.522C138.971 142.522 136.916 141.227 134.539 140.898" fill="#FDDAC2"/>
<path d="M133.195 145.87C133.275 145.87 133.361 145.87 133.449 145.876C134.008 144.811 135.152 142.579 134.641 142.952C134.118 143.33 133.322 145.104 133 145.852C133.062 145.852 133.127 145.864 133.195 145.87Z" fill="#F1CEB6"/>
<path d="M137.734 143.566C137.568 143.761 137.734 145.091 137.855 145.919H138.219C138.092 144.825 137.891 143.388 137.737 143.566H137.734Z" fill="#F1CEB6"/>
<path d="M82.3713 146.77C82.9242 145.534 83.9709 143.08 83.4357 143.479C82.9242 143.854 82.1171 145.759 81.7031 146.787L82.3713 146.77Z" fill="#FDDAC2"/>
<path d="M133.195 145.87C133.275 145.87 133.361 145.87 133.449 145.876C134.008 144.811 135.152 142.579 134.641 142.952C134.118 143.33 133.322 145.104 133 145.852C133.062 145.852 133.127 145.864 133.195 145.87Z" fill="#F1CEB6"/>
<path d="M137.734 143.566C137.568 143.761 137.734 145.091 137.855 145.919H138.219C138.092 144.825 137.891 143.388 137.737 143.566H137.734Z" fill="#F1CEB6"/>
<path d="M97.4971 97.584C97.4971 97.584 97.1925 100.502 101.394 101.797C101.394 101.797 97.3877 106.983 97.4971 97.584Z" fill="#62425B"/>
<path d="M108.078 142.971C108.146 142.873 108.181 142.752 108.199 142.631C110.777 121.559 112.187 100.407 112.187 100.407L123.068 104.544C122.033 122.952 118.781 140.393 117.849 145.531C112.717 145.733 108.29 145.889 106.312 145.916C106.901 144.689 107.779 143.403 108.084 142.971H108.078V142.971Z" fill="#FDDAC2"/>
<path d="M108.078 142.971C108.146 142.873 108.181 142.752 108.199 142.631C110.777 121.559 112.187 100.407 112.187 100.407L123.068 104.544C122.033 122.952 118.781 140.393 117.849 145.531C112.717 145.733 108.29 145.889 106.312 145.916C106.901 144.689 107.779 143.403 108.084 142.971H108.078V142.971Z" fill="#62425B"/>
<path d="M111.585 98.3535C111.585 98.3535 110.296 120.765 106.396 141.636C106.373 141.757 106.334 141.872 106.252 141.97C105.814 142.511 104.288 144.48 103.783 145.887C103.623 146.337 103.954 146.807 104.433 146.795L114.968 146.582C115.272 146.576 115.538 146.363 115.606 146.065C116.434 142.606 121.274 124.215 123.628 104.559" fill="#EB6162"/>
<path d="M106.391 141.639C106.391 141.639 108.451 141.482 111.645 142.958C111.645 142.958 109.705 141.37 106.651 140.95L106.391 141.642V141.639Z" fill="#FDDAC2"/>
<path d="M109.664 144.232C109.427 144.469 109.525 145.891 109.608 146.677L110.143 146.666C110.045 145.527 109.874 144.019 109.664 144.232V144.232Z" fill="#FDDAC2"/>
<path d="M105.66 146.77C106.213 145.534 107.26 143.08 106.725 143.479C106.213 143.854 105.406 145.759 104.992 146.787L105.66 146.77Z" fill="#FDDAC2"/>
<path d="M109.664 144.232C109.427 144.469 109.525 145.891 109.608 146.677L110.143 146.666C110.045 145.527 109.874 144.019 109.664 144.232V144.232Z" fill="#FDDAC2"/>
<path d="M105.66 146.77C106.213 145.534 107.26 143.08 106.725 143.479C106.213 143.854 105.406 145.759 104.992 146.787L105.66 146.77Z" fill="#FDDAC2"/>
<path d="M0.0390625 122.01L70.4692 128.644C104.873 131.885 139.501 131.844 173.901 128.523L241.345 122.01C237.12 138.109 227.875 152.448 214.945 162.927L211.17 165.987C208.379 168.249 204.896 169.482 201.306 169.482H65.7533L60.9902 167.646C36.8433 158.359 15.7477 142.558 0.0390625 122.01Z" fill="#62425B"/>
<path d="M131.487 64.8135C132.303 68.6068 132.125 72.9502 129.852 76.2232C131.767 72.7639 131.906 68.663 131.487 64.8135Z" fill="#462B42"/>
<path d="M237.643 132.168H215.048C209.011 132.168 204.117 137.062 204.117 143.099V149.272C204.117 155.309 209.011 160.203 215.048 160.203H237.643C243.679 160.203 248.573 155.309 248.573 149.272V143.099C248.573 137.062 243.679 132.168 237.643 132.168Z" fill="#62425B"/>
<path d="M235.252 132.168H212.657C206.62 132.168 201.727 137.062 201.727 143.099V146.679C201.727 152.716 206.62 157.61 212.657 157.61H235.252C241.289 157.61 246.183 152.716 246.183 146.679V143.099C246.183 137.062 241.289 132.168 235.252 132.168Z" fill="#EFEFEF"/>
<path d="M126.261 56.4122C122.692 56.1373 113.787 58.6859 113.787 58.6859L106.727 41.0022C109.92 41.0347 112.847 41.1619 112.847 41.1619C112.847 41.1619 115.274 40.2394 117.09 40.0088L126.261 56.4122Z" fill="#EB6162"/>
<path d="M120.188 43.0645C123.653 44.2855 126.79 45.9827 130.246 47.2392C126.739 47.6975 122.559 45.5746 120.188 43.0645Z" fill="#462B42"/>
<path d="M112.317 60.5294C116.017 60.5294 119.017 57.5298 119.017 53.8296C119.017 50.1295 116.017 47.1299 112.317 47.1299C108.617 47.1299 105.617 50.1295 105.617 53.8296C105.617 57.5298 108.617 60.5294 112.317 60.5294Z" fill="#62425B"/>
<path d="M127.145 56.8026C130.039 56.8026 132.385 54.4569 132.385 51.5634C132.385 48.6699 130.039 46.3242 127.145 46.3242C124.252 46.3242 121.906 48.6699 121.906 51.5634C121.906 54.4569 124.252 56.8026 127.145 56.8026Z" fill="#62425B"/>
<path d="M127.877 56.1685C130.674 56.1685 132.942 53.901 132.942 51.1038C132.942 48.3066 130.674 46.0391 127.877 46.0391C125.08 46.0391 122.812 48.3066 122.812 51.1038C122.812 53.901 125.08 56.1685 127.877 56.1685Z" fill="#DFDFDF"/>
<path d="M128.635 54.6864C130.613 54.6864 132.216 53.0833 132.216 51.1059C132.216 49.1284 130.613 47.5254 128.635 47.5254C126.658 47.5254 125.055 49.1284 125.055 51.1059C125.055 53.0833 126.658 54.6864 128.635 54.6864Z" fill="#62425B"/>
<path d="M105.611 53.8281C105.611 53.8281 98.8138 57.2815 90.4169 55.3656C90.1715 55.3094 89.9527 55.5252 90.0089 55.7706L90.7007 58.7214C90.7303 58.8455 90.8249 58.9431 90.9491 58.9727C92.2116 59.2772 99.2395 60.723 106.551 57.246L105.614 53.8311L105.611 53.8281Z" fill="#62425B"/>
<path d="M123.286 52.6034H123.23C122.257 52.633 121.282 52.8459 120.386 53.2302L120.359 53.2421L120.055 51.8554C120.948 51.4681 121.923 51.2493 122.896 51.2197H122.982L123.286 52.6034V52.6034Z" fill="#DFDFDF"/>
<path d="M113.997 60.5294C117.697 60.5294 120.696 57.5298 120.696 53.8296C120.696 50.1295 117.697 47.1299 113.997 47.1299C110.296 47.1299 107.297 50.1295 107.297 53.8296C107.297 57.5298 110.296 60.5294 113.997 60.5294Z" fill="#DFDFDF"/>
<path d="M114.697 58.5658C117.313 58.5658 119.434 56.4452 119.434 53.8293C119.434 51.2134 117.313 49.0928 114.697 49.0928C112.082 49.0928 109.961 51.2134 109.961 53.8293C109.961 56.4452 112.082 58.5658 114.697 58.5658Z" fill="#62425B"/>
<path d="M116.381 57.5503C118.762 57.5503 120.692 55.6203 120.692 53.2395C120.692 50.8587 118.762 48.9287 116.381 48.9287C114 48.9287 112.07 50.8587 112.07 53.2395C112.07 55.6203 114 57.5503 116.381 57.5503Z" fill="#DFDFDF"/>
<path d="M116.837 56.289C118.521 56.289 119.886 54.9242 119.886 53.2407C119.886 51.5572 118.521 50.1924 116.837 50.1924C115.154 50.1924 113.789 51.5572 113.789 53.2407C113.789 54.9242 115.154 56.289 116.837 56.289Z" fill="url(#paint1_linear_3872_14752)"/>
<path d="M116.494 55.9448C117.988 55.9448 119.2 54.7336 119.2 53.2395C119.2 51.7454 117.988 50.5342 116.494 50.5342C115 50.5342 113.789 51.7454 113.789 53.2395C113.789 54.7336 115 55.9448 116.494 55.9448Z" stroke="#DFDFDF" stroke-width="0.581867" stroke-miterlimit="10"/>
<path d="M130.118 54.7695C132.246 54.7695 133.971 53.0446 133.971 50.917C133.971 48.7893 132.246 47.0645 130.118 47.0645C127.99 47.0645 126.266 48.7893 126.266 50.917C126.266 53.0446 127.99 54.7695 130.118 54.7695Z" fill="#DFDFDF"/>
<path d="M130.52 53.6395C132.024 53.6395 133.243 52.4203 133.243 50.9164C133.243 49.4125 132.024 48.1934 130.52 48.1934C129.016 48.1934 127.797 49.4125 127.797 50.9164C127.797 52.4203 129.016 53.6395 130.52 53.6395Z" fill="url(#paint2_linear_3872_14752)"/>
<path d="M130.215 53.3341C131.551 53.3341 132.634 52.2513 132.634 50.9156C132.634 49.5799 131.551 48.4971 130.215 48.4971C128.88 48.4971 127.797 49.5799 127.797 50.9156C127.797 52.2513 128.88 53.3341 130.215 53.3341Z" stroke="#DFDFDF" stroke-width="0.581867" stroke-miterlimit="10"/>
<path d="M103.906 49.3023C106.869 47.1292 110.038 45.4942 113.025 43.3477C111.437 46.4935 107.306 48.7642 103.906 49.3023Z" fill="#462B42"/>
<path d="M245.803 171.059C245.726 171.839 245.12 172.487 244.579 173.007C244.017 173.539 243.358 174.015 242.701 174.411C238.698 176.762 234.086 177.971 229.586 178.903C223.596 180.115 217.39 180.718 211.281 180.771C217.245 179.547 223.333 178.702 229.29 177.454C232.882 176.703 244.481 174.462 245.806 171.056L245.803 171.059Z" fill="#DFDFDF"/>
<path d="M46.1955 163.435C43.0083 166.628 43.2537 170.445 46.9377 173.147C60.6151 183.123 108.459 182.951 126.805 183.197C146.257 183.371 165.724 183.921 185.113 185.565C192.872 186.269 200.627 187.1 208.293 188.51C210.209 188.873 212.116 189.27 214.009 189.752C215.874 190.278 217.817 190.727 219.496 191.724C217.769 190.84 215.812 190.514 213.929 190.109C212.028 189.731 210.109 189.438 208.19 189.175C200.497 188.152 192.75 187.593 185.004 187.147C165.629 186.068 146.192 185.739 126.788 185.55C107.649 185.29 60.9019 184.903 46.5415 173.644C42.9137 170.684 42.5855 166.66 46.1955 163.438V163.435Z" fill="#DFDFDF"/>
<path d="M246.602 138.081H265.033" stroke="#62425B" stroke-width="4.65493" stroke-miterlimit="10" stroke-linecap="round"/>
<path d="M248.57 142.655H251.069" stroke="#62425B" stroke-width="4.65493" stroke-miterlimit="10" stroke-linecap="round"/>
<path d="M248.57 147.895H259.167" stroke="#62425B" stroke-width="4.65493" stroke-miterlimit="10" stroke-linecap="round"/>
</g>
<defs>
<linearGradient id="paint0_linear_3872_14752" x1="91.6611" y1="117.745" x2="107.308" y2="117.745" gradientUnits="userSpaceOnUse">
<stop offset="0.03" stop-color="#EB6162"/>
<stop offset="1" stop-color="#62425B"/>
</linearGradient>
<linearGradient id="paint1_linear_3872_14752" x1="113.792" y1="53.2407" x2="119.886" y2="53.2407" gradientUnits="userSpaceOnUse">
<stop stop-color="#62425B"/>
<stop offset="0.28" stop-color="#65445E"/>
<stop offset="0.5" stop-color="#6E4D68"/>
<stop offset="0.7" stop-color="#7E5B79"/>
<stop offset="0.9" stop-color="#956F90"/>
<stop offset="1" stop-color="#A57EA1"/>
</linearGradient>
<linearGradient id="paint2_linear_3872_14752" x1="127.797" y1="50.9164" x2="133.246" y2="50.9164" gradientUnits="userSpaceOnUse">
<stop stop-color="#62425B"/>
<stop offset="0.28" stop-color="#65445E"/>
<stop offset="0.5" stop-color="#6E4D68"/>
<stop offset="0.7" stop-color="#7E5B79"/>
<stop offset="0.9" stop-color="#956F90"/>
<stop offset="1" stop-color="#A57EA1"/>
</linearGradient>
<clipPath id="clip0_3872_14752">
<rect width="268.915" height="157.104" fill="white" transform="translate(0.0390625 34.6152)"/>
</clipPath>
</defs>
</svg>
