<svg width="290" height="278" viewBox="0 0 290 278" fill="none" xmlns="http://www.w3.org/2000/svg">
<mask id="mask0_3872_7103" style="mask-type:alpha" maskUnits="userSpaceOnUse" x="23" y="14" width="255" height="252">
<path d="M232.825 69.6584C238.444 76.2761 242.394 83.7125 246.171 91.2948C255.281 109.335 264.072 127.347 270.357 146.587C273.896 157.37 276.943 168.27 277.876 179.466C278.429 184.992 276.667 189.185 271.905 192.629C263.731 198.671 254.594 202.534 245.432 206.716C224.628 215.99 203.7 224.769 182.476 233.201C157.445 243.067 132.141 252.264 106.294 260.125C99.7095 262.12 93.0009 263.621 86.1683 264.627C73.634 266.578 65.9053 262.351 59.8333 251.022C49.936 232.751 42.8634 213.281 36.6258 193.401C33.5309 183.14 30.7557 172.909 27.3173 162.94C21.8997 147.159 22.2362 131.888 28.6941 116.513C34.8085 101.43 39.6921 85.5939 46.1261 70.5393C52.3406 56.2706 58.2593 41.6536 67.403 29.0936C69.3883 26.2089 71.5215 23.4983 73.8026 20.9619C77.8733 16.0067 83.3032 14.3931 89.4008 14.6103C101.448 14.8706 113.5 17.2252 125.184 20.1916C144.125 25.0884 161.892 32.7807 180.198 39.7153C189.893 43.4721 199.563 47.5489 208.867 52.2375C217.554 56.5495 226.17 61.8216 232.825 69.6584Z" fill="#D9C8D9"/>
</mask>
<g mask="url(#mask0_3872_7103)">
<path d="M168.812 21.5234L182.742 58.3273L140.961 53.5507L168.812 21.5234Z" fill="url(#paint0_linear_3872_7103)"/>
<path d="M288.274 233.958C288.274 248.803 284.794 220.764 280.009 233.958C273.279 252.519 259.25 270.763 245.116 283.995C234.328 294.084 226.379 299.839 212.517 305.582C202.543 309.72 200.201 310.609 189.102 312.009C185.134 312.508 184.448 316.494 180.378 316.601L118.367 221.497C117.954 221.514 117.537 221.523 117.124 221.527C116.319 221.544 168.909 325.324 168.113 325.324C166.55 325.324 111.619 221.527 110.061 221.467C108.626 221.416 107.204 221.335 105.782 221.233C103.718 221.089 101.67 220.884 99.6349 220.642C99.5583 220.637 148.775 320.282 148.699 320.274C147.813 320.167 97.6468 220.386 96.7655 220.254C92.917 219.705 89.128 218.973 85.4029 218.066C83.2019 217.538 81.0222 216.942 78.8638 216.291C65.3002 212.195 121.219 349.572 110.061 341.394L4.85156 107.016L168.113 65.9246L217.267 53.5488L238.668 95.6104C271.076 159.433 315.888 256.459 309.853 256.481C308.189 256.487 302.662 249.123 291.947 231.662L288.274 233.958Z" fill="#EB6162"/>
<path d="M143.188 417.151L4.53125 107.24L70.6457 94.843L64.2179 143.052L217.108 53.5215L348.418 320.734L143.188 417.151Z" fill="#EB6162"/>
<path d="M4.85156 107.013L168.815 21.5234L158.87 42.9118L217.267 53.5507L64.2018 142.267L70.8346 94.5735L4.85156 107.013Z" fill="url(#paint1_linear_3872_7103)"/>
<path d="M158.867 42.9111L173.359 78.9956L217.264 53.55L158.867 42.9111Z" fill="#C1484E"/>
<path d="M70.8359 94.5732L87.8564 128.559L64.2031 142.267L70.8359 94.5732Z" fill="#C1484E"/>
<path d="M184.05 395.573L64.7305 141.961" stroke="#C1484E" stroke-width="1.83651" stroke-miterlimit="10"/>
<path d="M129.584 118.891C131.14 118.891 132.402 117.63 132.402 116.073C132.402 114.517 131.14 113.255 129.584 113.255C128.027 113.255 126.766 114.517 126.766 116.073C126.766 117.63 128.027 118.891 129.584 118.891Z" fill="white"/>
<path d="M158.072 103.233C159.629 103.233 160.89 101.971 160.89 100.415C160.89 98.8585 159.629 97.5967 158.072 97.5967C156.516 97.5967 155.254 98.8585 155.254 100.415C155.254 101.971 156.516 103.233 158.072 103.233Z" fill="white"/>
<path d="M86.9824 81.8915C88.5389 81.8915 89.8007 80.6297 89.8007 79.0732C89.8007 77.5167 88.5389 76.2549 86.9824 76.2549C85.4259 76.2549 84.1641 77.5167 84.1641 79.0732C84.1641 80.6297 85.4259 81.8915 86.9824 81.8915Z" fill="white"/>
<path d="M115.471 66.2372C117.027 66.2372 118.289 64.9754 118.289 63.4189C118.289 61.8624 117.027 60.6006 115.471 60.6006C113.914 60.6006 112.652 61.8624 112.652 63.4189C112.652 64.9754 113.914 66.2372 115.471 66.2372Z" fill="white"/>
<path d="M145.553 154.335C150.772 154.335 155.004 150.103 155.004 144.884C155.004 139.664 150.772 135.433 145.553 135.433C140.333 135.433 136.102 139.664 136.102 144.884C136.102 150.103 140.333 154.335 145.553 154.335Z" fill="white"/>
<path d="M144.043 150.472C147.941 150.472 151.101 147.311 151.101 143.413C151.101 139.515 147.941 136.354 144.043 136.354C140.145 136.354 136.984 139.515 136.984 143.413C136.984 147.311 140.145 150.472 144.043 150.472Z" fill="#5E445A"/>
<path d="M145.43 142.488C147.132 142.488 148.512 141.108 148.512 139.405C148.512 137.703 147.132 136.323 145.43 136.323C143.728 136.323 142.348 137.703 142.348 139.405C142.348 141.108 143.728 142.488 145.43 142.488Z" fill="white"/>
<path d="M178.15 134.973C183.37 134.973 187.601 130.742 187.601 125.522C187.601 120.303 183.37 116.071 178.15 116.071C172.931 116.071 168.699 120.303 168.699 125.522C168.699 130.742 172.931 134.973 178.15 134.973Z" fill="white"/>
<path d="M176.648 131.11C180.547 131.11 183.707 127.95 183.707 124.052C183.707 120.153 180.547 116.993 176.648 116.993C172.75 116.993 169.59 120.153 169.59 124.052C169.59 127.95 172.75 131.11 176.648 131.11Z" fill="#5E445A"/>
<path d="M178.039 123.126C179.742 123.126 181.122 121.746 181.122 120.044C181.122 118.342 179.742 116.962 178.039 116.962C176.337 116.962 174.957 118.342 174.957 120.044C174.957 121.746 176.337 123.126 178.039 123.126Z" fill="white"/>
<path d="M166.438 116.072L184.552 113.761" stroke="#5E445A" stroke-width="2.75477" stroke-linecap="round" stroke-linejoin="round"/>
<path d="M132.145 146.171L141.83 130.688" stroke="#5E445A" stroke-width="2.75477" stroke-linecap="round" stroke-linejoin="round"/>
</g>
<defs>
<linearGradient id="paint0_linear_3872_7103" x1="140.961" y1="39.9275" x2="182.742" y2="39.9275" gradientUnits="userSpaceOnUse">
<stop stop-color="#432D41"/>
<stop offset="0.02" stop-color="#4B2F42"/>
<stop offset="0.13" stop-color="#753C4A"/>
<stop offset="0.25" stop-color="#994752"/>
<stop offset="0.37" stop-color="#B75157"/>
<stop offset="0.5" stop-color="#CE585C"/>
<stop offset="0.64" stop-color="#DE5D5F"/>
<stop offset="0.79" stop-color="#E76061"/>
<stop offset="1" stop-color="#EB6162"/>
</linearGradient>
<linearGradient id="paint1_linear_3872_7103" x1="111.057" y1="142.267" x2="111.057" y2="21.5234" gradientUnits="userSpaceOnUse">
<stop stop-color="#432D41"/>
<stop offset="0.02" stop-color="#4B2F42"/>
<stop offset="0.13" stop-color="#753C4A"/>
<stop offset="0.25" stop-color="#994752"/>
<stop offset="0.37" stop-color="#B75157"/>
<stop offset="0.5" stop-color="#CE585C"/>
<stop offset="0.64" stop-color="#DE5D5F"/>
<stop offset="0.79" stop-color="#E76061"/>
<stop offset="1" stop-color="#EB6162"/>
</linearGradient>
</defs>
</svg>
