<svg width="194" height="193" viewBox="0 0 194 193" fill="none" xmlns="http://www.w3.org/2000/svg">
<path d="M115.821 8.46959C116.116 8.46959 116.372 8.48236 116.603 8.50779C119.682 8.90202 120.875 8.68581 125.903 15.6039C131.008 22.6238 147.466 56.6422 150.531 62.5935C153.597 68.5202 172.26 109.812 174.621 119.16C176.776 127.705 181.47 136.277 168.81 143.882C155.008 152.174 137.101 158.494 130.598 160.694C124.017 162.919 112.999 167.18 106.714 168.655C103.34 169.443 101.301 170.257 98.1067 170.257C95.3486 170.257 91.7317 169.647 85.6517 167.879C72.5552 164.077 59.4075 159.995 51.711 157.146C44.0018 154.297 30.3794 149.223 23.953 144.517C17.8217 140.029 13.8709 139.774 15.051 124.501C16.2696 108.757 19.4251 99.3463 22.8243 88.5747C26.2234 77.8037 32.5216 58.5497 36.5749 51.5553C40.6283 44.5609 43.3605 39.6266 56.1748 32.327C68.989 25.0274 77.7885 20.8434 85.2283 17.4352C92.3346 14.1796 110.01 8.46959 115.834 8.46959H115.821ZM115.834 0.0127199C107.445 0.0127199 87.819 6.93085 81.6493 9.75405C73.7739 13.3657 64.7178 17.7023 51.9162 24.9892C37.2676 33.319 33.599 39.6902 29.3276 47.0534L29.1609 47.3332C25.8387 53.0814 20.9643 66.1038 14.6662 86.0441L14.2172 87.4814C10.9078 97.9603 7.77805 107.854 6.53377 123.852C5.34088 139.316 8.91965 144.582 16.8724 149.935C17.5651 150.406 18.2193 150.838 18.8864 151.322C25.7745 156.37 37.8961 161.063 48.735 165.069C58.5095 168.681 74.5687 173.462 83.2656 175.993C89.8202 177.9 94.2588 178.714 98.1195 178.714C101.621 178.714 104.148 178.053 106.586 177.417C107.24 177.252 107.92 177.061 108.689 176.883C113.628 175.726 120.67 173.208 126.878 170.982C129.264 170.13 131.521 169.316 133.356 168.693C142.425 165.628 159.664 159.27 173.235 151.118C189.846 141.148 185.87 127.477 183.741 120.126C183.433 119.071 183.138 118.066 182.894 117.099C180.213 106.468 160.908 64.0944 158.125 58.7276C157.496 57.507 156.214 54.938 154.597 51.6825C145.811 34.0057 136.896 16.2652 132.817 10.657C127.366 3.15385 124.21 0.902914 118.104 0.16532L117.681 0.11445C117.091 0.0381468 116.475 0 115.808 0L115.834 0.0127199Z" fill="#E03D59"/>
<path d="M67.1132 18.5638C77.5291 18.5638 85.3018 19.9246 93.909 21.3235C104.915 23.1039 124.656 26.5121 132.07 29.4879C139.497 32.4637 144.705 34.4475 153.697 46.0583C162.688 57.6691 168.063 65.7699 172.463 72.6243C176.875 79.5043 185.803 97.4229 185.739 102.37C185.7 105.473 186.188 106.63 180.159 112.62C174.04 118.699 143.204 139.987 137.842 143.904C132.493 147.808 94.8839 172.353 86.0972 176.053C81.6079 177.948 77.2212 180.631 72.603 180.631C68.9604 180.631 65.1889 178.965 61.1101 173.942C51.0024 161.505 42.2286 144.718 39.1373 138.601C36.0074 132.421 30.248 122.145 27.8879 116.13C25.5276 110.128 23.7704 108.69 25.579 95.1722C27.3876 81.6536 29.4656 68.0463 31.1331 59.9966C32.8007 51.9464 35.7637 37.7286 39.4323 30.6706C42.9341 23.9305 42.6006 19.9882 57.6981 18.9199C61.0845 18.6783 64.2017 18.5765 67.1132 18.5765V18.5638ZM67.1132 10.3994C63.8682 10.3994 60.597 10.5266 57.1081 10.7682C41.831 11.8619 37.226 16.1349 33.1854 24.7316C32.8391 25.4565 32.4928 26.2069 32.108 26.9444C28.2085 34.4475 25.3994 47.1011 23.0649 58.3686C20.9612 68.5548 18.6267 85.1253 17.4209 94.1039C15.7406 106.63 16.7796 110.916 19.3963 117.083C19.6529 117.707 19.9351 118.368 20.2301 119.093C22.0643 123.785 25.5533 130.373 28.619 136.185C29.7991 138.423 30.9151 140.534 31.8001 142.263C36.11 150.771 44.8069 166.859 54.7222 179.067C59.9684 185.527 65.9971 188.808 72.6415 188.808C78.0294 188.808 82.5443 186.71 86.5333 184.853C87.5211 184.395 88.4576 183.963 89.3555 183.582C99.3475 179.372 137.919 154.027 142.768 150.492C143.858 149.69 146.193 148.05 149.13 145.964C165.113 134.684 181.134 123.251 186.021 118.394C192.293 112.162 194.012 108.856 193.999 103.018V102.459C194.102 94.0654 182.416 72.8791 179.428 68.2242C174.759 60.9628 169.204 52.6458 160.238 41.0732C150.002 27.8601 143.268 25.1514 135.469 22.0229L135.161 21.9084C129.055 19.4668 115.625 16.5545 95.2303 13.2481L93.755 13.0065C85.4429 11.6584 77.5804 10.3867 67.1003 10.3867L67.1132 10.3994Z" fill="#9F76A1"/>
<path d="M120.993 21.909C128.869 21.909 138.592 22.1888 144.403 23.7911C151.663 25.775 155.357 24.5923 159.898 39.2551C164.567 54.3504 165.144 64.2569 166.003 75.499C166.863 86.7412 168.171 106.949 167.055 114.91C165.927 122.883 165.247 128.453 156.217 139.835C147.199 151.217 140.696 158.275 135.142 164.112C129.588 169.962 112.822 182.794 109.756 183.658C108.718 183.951 107.91 184.205 106.986 184.205C105.318 184.205 103.24 183.366 98.6484 180.377C91.4138 175.659 63.874 149.856 58.8844 145.431C53.9074 141.005 21.6856 109.225 16.1058 101.366C11.0007 94.1804 3.56089 87.8602 12.3218 76.2495C21.878 63.5828 35.9109 51.2856 41.0418 46.9109C46.2239 42.4854 54.7283 34.5752 59.9363 30.9509C65.144 27.3265 66.1061 25.2663 79.4591 24.1345C92.8121 22.9899 106.319 22.087 114.413 21.9853C116.324 21.9599 118.569 21.9344 121.006 21.9344L120.993 21.909ZM121.006 13.7573C118.543 13.7573 116.248 13.7827 114.31 13.8082C104.061 13.9353 87.6301 15.2325 78.7536 15.9955C66.2216 17.0637 62.309 19.0603 56.9218 23.0281C56.3959 23.4223 55.8315 23.8293 55.2029 24.2744C51.1239 27.123 45.6082 31.9937 40.7595 36.2794C38.8868 37.9326 37.1295 39.4968 35.68 40.7303C28.5225 46.8346 15.1181 58.9285 5.72868 71.366C-5.62334 86.4106 2.5732 97.1437 7.48602 103.566C8.15303 104.444 8.79438 105.283 9.37159 106.097C15.721 115.024 48.892 147.542 53.3943 151.548C54.4205 152.45 56.5241 154.396 59.1923 156.851C73.6998 170.165 88.3613 183.493 94.1334 187.257C99.1615 190.538 102.881 192.433 106.999 192.433C108.987 192.433 110.565 191.988 111.719 191.657L112.001 191.581C117.902 189.928 136.348 174.833 141.158 169.771C147.032 163.591 153.702 156.304 162.707 144.947C172.981 131.989 173.995 124.778 175.175 116.436L175.226 116.118C176.15 109.606 175.816 95.7577 174.239 74.9521L174.123 73.4518C173.302 62.5274 172.532 52.214 167.787 36.9152C163.246 22.2523 158.102 18.6661 148.957 16.5423C148.148 16.3516 147.392 16.1862 146.609 15.9701C141.196 14.4822 133.064 13.7955 121.006 13.7955V13.7573Z" fill="#EB6162"/>
</svg>
