<svg width="256" height="38" viewBox="0 0 256 38" fill="none" xmlns="http://www.w3.org/2000/svg">
<path opacity="0.8" d="M22.6755 1.67259C22.7332 1.67259 22.7834 1.6751 22.8286 1.68013C23.4314 1.75798 23.6649 1.71529 24.6494 3.08149C25.649 4.46778 28.8711 11.1858 29.4713 12.3611C30.0715 13.5314 33.7256 21.6859 34.1877 23.5318C34.6096 25.2195 35.5288 26.9122 33.05 28.414C30.3478 30.0514 26.8419 31.2996 25.5686 31.7341C24.2802 32.1735 22.1229 33.0149 20.8924 33.3062C20.2319 33.4619 19.8325 33.6226 19.2072 33.6226C18.6673 33.6226 17.959 33.5021 16.7686 33.153C14.2045 32.4021 11.6303 31.5959 10.1235 31.0334C8.61412 30.4708 5.94701 29.4688 4.6888 28.5396C3.48835 27.653 2.71484 27.6028 2.94589 24.5866C3.18447 21.4775 3.80228 19.6191 4.4678 17.4919C5.13332 15.3647 6.36642 11.5625 7.16002 10.1812C7.95362 8.79995 8.48855 7.82553 10.9974 6.38398C13.5063 4.94244 15.2291 4.11619 16.6858 3.44313C18.0771 2.80021 21.5378 1.67259 22.678 1.67259H22.6755ZM22.678 0.00251194C21.0355 0.00251194 17.1931 1.36871 15.9851 1.92624C14.4431 2.63948 12.67 3.49587 10.1637 4.9349C7.29564 6.57987 6.57738 7.83808 5.74108 9.29218L5.70843 9.34743C5.05798 10.4826 4.10365 13.0543 2.87055 16.9921L2.78265 17.2759C2.13471 19.3453 1.52193 21.2992 1.27832 24.4585C1.04476 27.5124 1.74544 28.5521 3.30251 29.6094C3.43812 29.7023 3.56621 29.7877 3.6968 29.8832C5.04542 30.8802 7.41869 31.8069 9.54083 32.598C11.4545 33.3112 14.5988 34.2555 16.3015 34.7553C17.5848 35.132 18.4538 35.2927 19.2097 35.2927C19.8953 35.2927 20.3901 35.1621 20.8672 35.0365C20.9953 35.0039 21.1284 34.9662 21.2791 34.9311C22.246 34.7025 23.6248 34.2053 24.8403 33.7658C25.3074 33.5975 25.7494 33.4368 26.1085 33.3137C27.8841 32.7085 31.2594 31.4528 33.9165 29.843C37.1687 27.874 36.3902 25.1743 35.9733 23.7227C35.913 23.5142 35.8553 23.3158 35.8076 23.125C35.2827 21.0254 31.503 12.6575 30.9581 11.5976C30.835 11.3566 30.5839 10.8492 30.2674 10.2063C28.5471 6.71548 26.8017 3.21208 26.0031 2.10455C24.9357 0.622827 24.3179 0.178309 23.1225 0.0326475L23.0396 0.0226017C22.9241 0.00753328 22.8035 0 22.6729 0L22.678 0.00251194Z" fill="white"/>
<path opacity="0.9" d="M13.139 3.6639C15.1782 3.6639 16.7001 3.93262 18.3853 4.20888C20.5401 4.56047 24.4051 5.23353 25.8567 5.8212C27.3108 6.40886 28.3304 6.80064 30.0909 9.09355C31.8514 11.3865 32.9037 12.9862 33.7651 14.3399C34.629 15.6985 36.377 19.2371 36.3644 20.214C36.3569 20.8268 36.4523 21.0553 35.2719 22.2382C34.074 23.4387 28.0366 27.6428 26.9868 28.4163C25.9396 29.1873 18.5761 34.0343 16.8558 34.7651C15.9768 35.1393 15.1179 35.6692 14.2138 35.6692C13.5006 35.6692 12.7623 35.3402 11.9636 34.3482C9.98465 31.892 8.26685 28.577 7.6616 27.369C7.04882 26.1485 5.9212 24.1193 5.4591 22.9314C4.99701 21.746 4.65294 21.4622 5.00705 18.7926C5.36116 16.123 5.76801 13.4358 6.09449 11.846C6.42097 10.2563 7.0011 7.44858 7.71936 6.05475C8.40498 4.72371 8.33968 3.94518 11.2956 3.73422C11.9586 3.68651 12.5689 3.66641 13.139 3.66641V3.6639ZM13.139 2.05158C12.5036 2.05158 11.8632 2.0767 11.1801 2.12442C8.189 2.3404 7.2874 3.18422 6.49631 4.88193C6.42851 5.02508 6.3607 5.17326 6.28535 5.31892C5.52189 6.80064 4.97189 9.29948 4.51482 11.5246C4.10295 13.5362 3.64587 16.8086 3.4098 18.5816C3.08081 21.0553 3.28423 21.9017 3.79656 23.1197C3.84679 23.2428 3.90204 23.3734 3.9598 23.5165C4.31893 24.4432 5.00203 25.7441 5.60225 26.8918C5.8333 27.3338 6.05179 27.7507 6.22508 28.0923C7.06891 29.7724 8.77164 32.9493 10.713 35.3603C11.7401 36.6361 12.9205 37.284 14.2214 37.284C15.2762 37.284 16.1602 36.8696 16.9412 36.503C17.1346 36.4126 17.3179 36.3272 17.4937 36.2518C19.4501 35.4206 27.0019 30.4153 27.9512 29.7172C28.1647 29.559 28.6218 29.235 29.1969 28.8231C32.3261 26.5955 35.4628 24.3378 36.4196 23.3784C37.6477 22.1478 37.9842 21.4948 37.9817 20.3421V20.2316C38.0018 18.5741 35.7139 14.3901 35.1288 13.4709C34.2146 12.0369 33.1272 10.3945 31.3717 8.10908C29.3676 5.49974 28.0492 4.96481 26.5222 4.34701L26.4619 4.3244C25.2665 3.84221 22.6371 3.2671 18.644 2.61414L18.3551 2.56642C16.7278 2.30021 15.1883 2.04907 13.1365 2.04907L13.139 2.05158Z" fill="white"/>
<path d="M23.6891 4.3244C25.2311 4.3244 27.1347 4.37966 28.2724 4.69609C29.6938 5.08787 30.4171 4.85431 31.3061 7.74995C32.2203 10.731 32.3333 12.6874 32.5016 14.9074C32.6698 17.1275 32.926 21.1181 32.7075 22.6903C32.4865 24.2649 32.3534 25.3649 30.5854 27.6126C28.8198 29.8603 27.5466 31.2542 26.4591 32.4069C25.3717 33.5621 22.0893 36.0961 21.4891 36.2669C21.2856 36.3247 21.1274 36.3749 20.9466 36.3749C20.6201 36.3749 20.2133 36.2091 19.3142 35.619C17.8978 34.6872 12.5058 29.5916 11.5288 28.7176C10.5544 27.8437 4.24579 21.5677 3.15333 20.0156C2.15379 18.5967 0.69718 17.3485 2.41247 15.0556C4.28346 12.5543 7.03093 10.1257 8.03549 9.26182C9.0501 8.38785 10.7152 6.82576 11.7348 6.11001C12.7544 5.39426 12.9428 4.98741 15.5571 4.7639C18.1715 4.53787 20.816 4.35957 22.4007 4.33948C22.7749 4.33445 23.2144 4.32943 23.6916 4.32943L23.6891 4.3244ZM23.6916 2.7146C23.2094 2.7146 22.7598 2.71962 22.3806 2.72464C20.374 2.74976 17.1569 3.00592 15.419 3.1566C12.9654 3.36756 12.1994 3.76185 11.1446 4.54541C11.0416 4.62326 10.9311 4.70363 10.8081 4.79153C10.0095 5.35408 8.92955 6.31595 7.98024 7.16229C7.61358 7.48877 7.26951 7.79767 6.98573 8.04128C5.58436 9.24675 2.95995 11.6351 1.12161 14.0912C-1.10098 17.0622 0.503803 19.1819 1.46567 20.4501C1.59626 20.6234 1.72183 20.7892 1.83485 20.9499C3.07799 22.7129 9.57247 29.1345 10.454 29.9256C10.6549 30.1039 11.0668 30.4882 11.5891 30.9729C14.4295 33.6023 17.3 36.2343 18.4302 36.9776C19.4146 37.6256 20.143 37.9998 20.9491 37.9998C21.3384 37.9998 21.6473 37.9119 21.8733 37.8466L21.9286 37.8315C23.0838 37.505 26.6952 34.524 27.637 33.5245C28.7872 32.3039 30.0931 30.8649 31.8561 28.6222C33.8678 26.0631 34.0662 24.6391 34.2972 22.9916L34.3073 22.9289C34.4881 21.643 34.4228 18.9081 34.1139 14.7995L34.0913 14.5031C33.9305 12.3458 33.7799 10.3091 32.8506 7.28786C31.9616 4.39221 30.9545 3.684 29.1639 3.26459C29.0057 3.22692 28.8575 3.19427 28.7043 3.15158C27.6445 2.85775 26.0523 2.72213 23.6916 2.72213V2.7146Z" fill="white"/>
<path d="M53.6344 23.7771H47.7327C47.6598 23.7771 47.6021 23.7194 47.6021 23.6465V10.9539C47.6021 10.6651 47.361 10.4918 47.0747 10.4918H45.8792C45.5904 10.4918 45.3594 10.6676 45.3594 10.9539V25.4472C45.3594 25.736 45.5929 25.9143 45.8792 25.9143H53.6395C53.9283 25.9143 54.1593 25.736 54.1593 25.4472V24.2442C54.1593 23.9554 53.9233 23.7771 53.6344 23.7771Z" fill="white"/>
<path d="M61.4717 10.4919H60.2738C59.985 10.4919 59.7539 10.6677 59.7539 10.954V25.4473C59.7539 25.7361 59.9875 25.9145 60.2738 25.9145H61.4717C61.7605 25.9145 61.9966 25.7361 61.9966 25.4473V10.954C61.9966 10.6652 61.758 10.4919 61.4717 10.4919Z" fill="white"/>
<path d="M80.3073 10.4918H78.8531C78.5618 10.4918 78.3006 10.6776 78.2052 10.9539L74.187 22.5766C74.1468 22.6947 73.981 22.6947 73.9408 22.5766L69.895 10.9514C69.7996 10.6751 69.5384 10.4918 69.247 10.4918H67.8155C67.577 10.4918 67.4087 10.7278 67.4891 10.9539L72.6651 25.4472C72.7655 25.7259 72.8961 25.9118 73.1925 25.9118H74.9103C75.2041 25.9118 75.3347 25.7259 75.4351 25.4497L80.6337 10.9539C80.7141 10.7278 80.5483 10.4893 80.3073 10.4893V10.4918Z" fill="white"/>
<path d="M107.536 10.4918H102.43C102.141 10.4918 101.91 10.6676 101.91 10.9539V25.4472C101.91 25.736 102.151 25.9143 102.438 25.9143H103.628C103.917 25.9143 104.155 25.736 104.155 25.4472V20.6152C104.155 20.5424 104.213 20.4846 104.286 20.4846H107.538C108.967 20.4846 110.173 19.9974 111.124 19.0406C112.076 18.0812 112.559 16.8858 112.559 15.4869C112.559 14.0881 112.076 12.8726 111.124 11.9233C110.173 10.9714 108.967 10.4893 107.538 10.4893L107.536 10.4918ZM109.537 17.5488C109.012 18.0938 108.339 18.3725 107.536 18.3725H104.283C104.211 18.3725 104.153 18.3148 104.153 18.242V12.737C104.153 12.6641 104.211 12.6064 104.283 12.6064H107.536C108.339 12.6064 109.012 12.8801 109.54 13.4176C110.065 13.9575 110.333 14.6532 110.333 15.4869C110.333 16.3207 110.067 16.9988 109.54 17.5463L109.537 17.5488Z" fill="white"/>
<path d="M123.83 10.949C123.727 10.6728 123.599 10.4919 123.305 10.4919H121.579C121.286 10.4919 121.155 10.6753 121.052 10.949L115.648 25.4448C115.562 25.6708 115.73 25.9119 115.971 25.9119H117.353C117.659 25.9119 117.933 25.7211 118.038 25.4323L119.053 22.6421C119.083 22.5592 119.161 22.504 119.249 22.504H125.63C125.718 22.504 125.796 22.5592 125.826 22.6421L126.841 25.4323C126.946 25.7211 127.22 25.9119 127.526 25.9119H128.903C129.146 25.9119 129.317 25.6683 129.232 25.4398L123.827 10.9465L123.83 10.949ZM124.822 20.3894H120.058C119.967 20.3894 119.904 20.299 119.934 20.2136L122.315 13.6664C122.358 13.5508 122.519 13.5508 122.559 13.6664L124.94 20.2136C124.97 20.299 124.907 20.3894 124.817 20.3894H124.822Z" fill="white"/>
<path d="M162.638 23.7771H156.342C156.269 23.7771 156.211 23.7193 156.211 23.6465V19.3143C156.211 19.2415 156.269 19.1837 156.342 19.1837H162.113C162.402 19.1837 162.633 19.0054 162.633 18.7166V17.5337C162.633 17.2449 162.4 17.0691 162.113 17.0691H156.342C156.269 17.0691 156.211 17.0114 156.211 16.9385V12.7571C156.211 12.6842 156.269 12.6265 156.342 12.6265H162.638C162.927 12.6265 163.158 12.4532 163.158 12.1644V10.9338C163.158 10.645 162.924 10.4893 162.638 10.4893H154.489C154.2 10.4893 153.969 10.6651 153.969 10.9514V25.4446C153.969 25.7335 154.202 25.9118 154.489 25.9118H162.638C162.927 25.9118 163.158 25.7335 163.158 25.4446V24.2417C163.16 23.9529 162.924 23.7746 162.638 23.7746V23.7771Z" fill="white"/>
<path d="M147.86 21.9464L147.028 21.4667C146.757 21.311 146.637 21.3186 146.428 21.5923C145.991 22.1699 145.381 22.8003 144.705 23.1921C143.874 23.6743 142.942 23.9179 141.935 23.9179C140.242 23.9179 138.841 23.3654 137.774 22.2754C136.704 21.1855 136.161 19.8092 136.161 18.1868C136.161 16.5645 136.704 15.1681 137.774 14.0782C138.844 12.9882 140.242 12.4357 141.935 12.4357C142.942 12.4357 143.874 12.6793 144.705 13.1615C145.331 13.5232 145.901 14.1686 146.38 14.6834C146.654 14.9798 146.78 14.9823 147.061 14.8567L147.915 14.367C148.176 14.1962 148.211 14.0606 148.211 13.9099C148.211 13.807 148.161 13.6914 148.071 13.5634C147.463 12.6869 146.667 11.9636 145.705 11.4136C144.562 10.7606 143.294 10.4316 141.935 10.4316C139.682 10.4316 137.796 11.1851 136.327 12.6743C134.861 14.1636 134.117 16.017 134.117 18.1843C134.117 20.3517 134.861 22.2076 136.327 23.6943C137.794 25.1836 139.68 25.937 141.935 25.937C143.296 25.937 144.57 25.603 145.717 24.9425C146.626 24.4201 147.382 23.7471 147.968 22.9409C148.091 22.7701 148.236 22.5642 148.209 22.3558C148.189 22.185 148.151 22.1021 147.86 21.9414V21.9464Z" fill="white"/>
<path d="M93.346 17.9759C92.3967 17.5088 90.8999 17.0718 90.8999 17.0718C89.7849 16.7152 88.0219 16.2581 87.8963 14.6634C87.8461 14.0255 88.1223 13.5307 88.5894 13.1565C89.0566 12.7823 89.6819 12.594 90.4479 12.594C91.7915 12.594 92.5399 13.3499 93.3963 14.2992C93.5997 14.5278 93.7328 14.6634 93.896 14.6835C93.994 14.696 94.0593 14.696 94.1873 14.6307L95.2899 14.0029C95.438 13.9175 95.5008 13.7316 95.4255 13.5785C94.991 12.6869 94.3531 11.9486 93.5369 11.391C92.6629 10.7958 91.6257 10.4919 90.4504 10.4919C89.147 10.4919 88.0219 10.8762 87.1127 11.6371C86.1986 12.4031 85.734 13.4479 85.734 14.7463C85.734 15.2887 85.8194 15.791 86.0253 16.2154C86.5401 17.2727 87.1956 17.662 87.7933 18.0362C88.2529 18.325 89.8075 18.8474 90.4177 19.0583C91.6458 19.4451 92.5298 19.8143 93.0497 20.1558C93.552 20.4873 93.7956 20.972 93.7956 21.635C93.7956 22.298 93.5494 22.8003 93.0421 23.1946C92.5323 23.5889 91.7814 23.7898 90.8045 23.7898C89.0566 23.7898 87.9917 23.1795 87.2157 21.7732C87.1228 21.6049 87.0349 21.3688 86.844 21.306C86.7335 21.2684 86.6582 21.2583 86.4196 21.3814L85.4401 21.969C85.1312 22.1474 85.0559 22.298 85.2392 22.6798C85.6963 23.6416 86.3543 24.375 87.1931 24.93C88.1776 25.5804 89.378 25.9119 90.7618 25.9119C92.2887 25.9119 93.5444 25.5202 94.4962 24.7467C95.4531 23.9681 95.9403 22.9058 95.9403 21.5948C95.9403 20.1784 95.1894 18.8775 93.3485 17.9734L93.346 17.9759Z" fill="white"/>
<path d="M178.891 22.1808L180.496 21.2415C180.687 21.131 180.923 21.2189 181.013 21.4199C181.634 22.8062 182.827 23.7002 184.798 23.7002C186.77 23.7002 187.742 22.771 187.742 21.6183C187.742 20.2144 186.496 19.7397 184.143 19.0164C181.674 18.2706 179.276 17.3639 179.276 14.3754C179.276 11.3868 181.699 9.80212 184.369 9.80212C186.84 9.80212 188.698 11.0453 189.733 12.9715C189.826 13.1448 189.758 13.3658 189.587 13.4663L188.038 14.3603C187.855 14.4658 187.626 14.3905 187.526 14.2046C186.938 13.1172 185.968 12.3386 184.371 12.3386C182.774 12.3386 181.882 13.1071 181.882 14.3076C181.882 15.508 182.766 16.0505 185.074 16.7763C187.701 17.6151 190.348 18.4288 190.348 21.5756C190.348 24.4737 188.038 26.2392 184.735 26.2392C181.744 26.2392 179.647 24.8278 178.738 22.6429C178.668 22.4746 178.738 22.2762 178.899 22.1833L178.891 22.1808Z" fill="white"/>
<path d="M204.815 12.5847H200.575V25.7193C200.575 25.8424 200.478 25.9403 200.354 25.9403H198.192C198.069 25.9403 197.971 25.8424 197.971 25.7193V12.5847H193.709C193.586 12.5847 193.488 12.4868 193.488 12.3637V10.3144C193.488 10.1913 193.586 10.0934 193.709 10.0934H204.812C204.935 10.0934 205.033 10.1913 205.033 10.3144V12.3637C205.033 12.4868 204.935 12.5847 204.812 12.5847H204.815Z" fill="white"/>
<path d="M207.977 18.017C207.977 13.3006 211.814 9.6088 216.556 9.8072C220.807 9.983 224.298 13.5341 224.409 17.7884C224.532 22.4923 220.865 26.2343 216.194 26.2343C211.523 26.2343 207.977 22.6128 207.977 18.017ZM221.809 18.017C221.809 14.7572 219.366 12.3337 216.196 12.3337C213.027 12.3337 210.583 14.7547 210.583 18.017C210.583 21.2793 213.027 23.7003 216.196 23.7003C219.366 23.7003 221.809 21.2768 221.809 18.017Z" fill="white"/>
<path d="M235.189 20.1667H232.11V25.6441C232.11 25.8073 231.977 25.9379 231.816 25.9379H229.802C229.638 25.9379 229.508 25.8048 229.508 25.6441V10.3873C229.508 10.2241 229.641 10.0935 229.802 10.0935H235.671C237.605 10.0935 239.45 11.0981 240.339 12.8134C241.836 15.6939 240.352 18.7503 237.79 19.7825L241.131 25.4959C241.246 25.6918 241.103 25.9379 240.877 25.9379H238.539L235.189 20.1642V20.1667ZM232.11 17.8362H235.844C237.225 17.8362 238.333 16.6583 238.333 15.1866C238.333 13.7149 237.223 12.5371 235.844 12.5371H232.11V17.8336V17.8362Z" fill="white"/>
<path d="M255.723 23.8183V25.5713C255.723 25.7747 255.557 25.9404 255.354 25.9404H246.323C246.2 25.9404 246.102 25.8425 246.102 25.7194V10.3145C246.102 10.1915 246.2 10.0935 246.323 10.0935H255.389C255.512 10.0935 255.61 10.1915 255.61 10.3145V12.3638C255.61 12.4869 255.512 12.5848 255.389 12.5848H248.706V16.706H254.675C254.879 16.706 255.045 16.8718 255.045 17.0752V18.8056C255.045 19.009 254.879 19.1747 254.675 19.1747H248.706V23.4542H255.356C255.559 23.4542 255.725 23.6199 255.725 23.8233L255.723 23.8183Z" fill="white"/>
</svg>
