<svg width="148" height="141" viewBox="0 0 148 141" fill="none" xmlns="http://www.w3.org/2000/svg">
<g clip-path="url(#clip0_4734_13097)">
<path opacity="0.5" d="M122.662 30.7171C125.715 34.3104 127.864 38.3556 129.914 42.4779C134.874 52.2877 139.647 62.0865 143.064 72.5467C144.993 78.4105 146.646 84.3405 147.153 90.4248C147.451 93.4339 146.492 95.7045 143.902 97.5783C139.46 100.863 134.489 102.968 129.507 105.239C118.198 110.287 106.812 115.06 95.2713 119.645C81.6588 125.013 67.903 130.006 53.8386 134.282C50.2563 135.374 46.608 136.178 42.8934 136.729C36.0817 137.788 31.8712 135.495 28.5755 129.333C23.1966 119.402 19.3499 108.81 15.955 97.9971C14.2686 92.4198 12.7585 86.8536 10.8958 81.4306C7.95283 72.8443 8.12919 64.5445 11.6453 56.1786C14.974 47.978 17.6304 39.3696 21.1245 31.1801C24.5083 23.4204 27.7268 15.4733 32.6978 8.63951C33.778 7.07435 34.9354 5.59737 36.1809 4.21958C38.3964 1.54117 41.3503 0.670408 44.668 0.780631C51.2153 0.923921 57.7735 2.2025 64.1224 3.81176C74.4172 6.47915 84.0837 10.6566 94.0368 14.4262C99.3055 16.4653 104.563 18.6808 109.622 21.238C114.351 23.5857 119.035 26.4515 122.651 30.7061L122.662 30.7171Z" fill="#D9C8D9"/>
<path d="M138.191 17.568C138.191 20.7534 135.811 23.3767 132.735 23.7625C132.515 23.7846 132.294 23.8066 132.063 23.8066H131.71C131.633 23.8066 131.567 23.8066 131.501 23.7956C131.391 23.7956 131.291 23.7735 131.181 23.7625C130.939 23.7294 130.707 23.6854 130.476 23.6413C127.742 22.9799 125.703 20.5109 125.703 17.568C125.703 14.118 128.503 11.3184 131.953 11.3184C135.403 11.3184 138.202 14.118 138.202 17.568H138.191Z" fill="#E7DEE7"/>
<path d="M10.6988 98.3276C10.6988 100.852 8.81398 102.924 6.37805 103.233C6.2017 103.255 6.02534 103.266 5.84898 103.266H5.5624C5.50729 103.266 5.45218 103.266 5.39707 103.266C5.30889 103.266 5.23174 103.255 5.14356 103.244C4.95618 103.222 4.7688 103.188 4.58142 103.144C2.41003 102.615 0.800781 100.664 0.800781 98.3386C0.800781 95.6051 3.01626 93.3896 5.74978 93.3896C8.48331 93.3896 10.6988 95.6051 10.6988 98.3386V98.3276Z" fill="#EBEEF8"/>
<mask id="mask0_4734_13097" style="mask-type:alpha" maskUnits="userSpaceOnUse" x="8" y="0" width="140" height="137">
<path d="M122.662 30.7171C125.715 34.3104 127.864 38.3556 129.914 42.4779C134.874 52.2877 139.647 62.0865 143.064 72.5467C144.993 78.4105 146.646 84.3405 147.153 90.4248C147.451 93.4339 146.492 95.7045 143.902 97.5783C139.46 100.863 134.489 102.968 129.507 105.239C118.198 110.287 106.812 115.06 95.2713 119.645C81.6588 125.013 67.903 130.006 53.8386 134.282C50.2563 135.374 46.608 136.178 42.8934 136.729C36.0817 137.788 31.8712 135.495 28.5755 129.333C23.1966 119.402 19.3499 108.81 15.955 97.9971C14.2686 92.4198 12.7585 86.8536 10.8958 81.4306C7.95283 72.8443 8.12919 64.5445 11.6453 56.1786C14.974 47.978 17.6304 39.3696 21.1245 31.1801C24.5083 23.4204 27.7268 15.4733 32.6978 8.63951C33.778 7.07435 34.9354 5.59737 36.1809 4.21958C38.3964 1.54117 41.3503 0.670408 44.668 0.780631C51.2153 0.923921 57.7735 2.2025 64.1224 3.81176C74.4172 6.47915 84.0837 10.6566 94.0368 14.4262C99.3055 16.4653 104.563 18.6808 109.622 21.238C114.351 23.5857 119.035 26.4515 122.651 30.7061L122.662 30.7171Z" fill="#D9C8D9"/>
</mask>
<g mask="url(#mask0_4734_13097)">
<path d="M140.32 138.912L61.5547 133.643L76.0269 54.9111L133.828 58.78L140.32 138.912Z" fill="url(#paint0_linear_4734_13097)"/>
<path d="M86.9375 60.2902C88.183 48.7388 92.2943 39.9761 96.571 40.2627C100.837 40.5493 103.757 49.7859 103.449 61.4034" stroke="white" stroke-width="0.826671" stroke-miterlimit="10"/>
<path d="M124.105 137.832L45.3398 132.563L57.6848 53.6768L122.43 58.0195L124.105 137.832Z" fill="#EB6162"/>
<path d="M81.7964 59.9493C81.8509 59.1354 81.1565 58.4262 80.2454 58.3652C79.3343 58.3042 78.5516 58.9146 78.4971 59.7285C78.4426 60.5424 79.137 61.2516 80.0481 61.3126C80.9592 61.3736 81.7419 60.7632 81.7964 59.9493Z" fill="white"/>
<path d="M98.4097 61.0646C98.4642 60.2507 97.7698 59.5414 96.8587 59.4804C95.9476 59.4195 95.1649 60.0298 95.1104 60.8437C95.0559 61.6576 95.7503 62.3668 96.6614 62.4278C97.5724 62.4888 98.3552 61.8785 98.4097 61.0646Z" fill="white"/>
<path d="M80.2031 59.838C81.4486 48.2867 85.5599 39.524 89.8366 39.8105C94.1022 40.0971 97.0231 49.3338 96.7145 60.9513" stroke="white" stroke-width="0.826671" stroke-miterlimit="10"/>
<path d="M77.521 140.466L23.6992 136.862L33.5862 83.0508L71.4808 85.5969L77.521 140.466Z" fill="url(#paint1_linear_4734_13097)"/>
<path d="M41.0508 86.7325C41.8995 78.8406 44.7102 72.8445 47.6311 73.0429C50.552 73.2413 52.536 79.557 52.3266 87.4931" stroke="white" stroke-width="0.826671" stroke-miterlimit="10"/>
<path d="M66.4461 139.728L12.6133 136.123L22.5113 82.3125L63.8118 85.0791L66.4461 139.728Z" fill="#EB6162"/>
<path d="M37.5254 86.4922C37.5624 85.9395 37.0901 85.4578 36.4706 85.4163C35.8511 85.3748 35.3188 85.7893 35.2818 86.342C35.2448 86.8947 35.7171 87.3764 36.3366 87.4179C36.9561 87.4593 37.4884 87.0449 37.5254 86.4922Z" fill="white"/>
<path d="M48.873 87.251C48.91 86.6983 48.4378 86.2166 47.8183 86.1751C47.1987 86.1336 46.6665 86.5481 46.6295 87.1008C46.5925 87.6535 47.0647 88.1352 47.6843 88.1767C48.3038 88.2181 48.836 87.8037 48.873 87.251Z" fill="white"/>
<path d="M36.4453 86.4239C37.294 78.532 40.1047 72.5359 43.0256 72.7343C45.9465 72.9327 47.9305 79.2484 47.7211 87.1845" stroke="white" stroke-width="0.826671" stroke-miterlimit="10"/>
<path d="M71.5664 36.3389V38.389" stroke="white" stroke-width="0.826671" stroke-linecap="round" stroke-linejoin="round"/>
<path d="M71.5664 40.626V42.6871" stroke="white" stroke-width="0.826671" stroke-linecap="round" stroke-linejoin="round"/>
<path d="M74.7487 39.5127H72.6875" stroke="white" stroke-width="0.826671" stroke-linecap="round" stroke-linejoin="round"/>
<path d="M70.4518 39.5127H68.3906" stroke="white" stroke-width="0.826671" stroke-linecap="round" stroke-linejoin="round"/>
<path d="M29.4336 69.9229V71.0141" stroke="white" stroke-width="0.826671" stroke-linecap="round" stroke-linejoin="round"/>
<path d="M29.4336 72.8213V73.9235" stroke="white" stroke-width="0.826671" stroke-linecap="round" stroke-linejoin="round"/>
<path d="M31.4389 71.918H30.3477" stroke="white" stroke-width="0.826671" stroke-linecap="round" stroke-linejoin="round"/>
<path d="M28.5287 71.918H27.4375" stroke="white" stroke-width="0.826671" stroke-linecap="round" stroke-linejoin="round"/>
</g>
<g clip-path="url(#clip1_4734_13097)">
<path d="M55.1345 42.456C55.9805 41.9401 56.587 41.1092 56.8204 40.1462C57.0538 39.1831 56.8951 38.1668 56.3792 37.3207L49.9992 41.2113C50.5151 42.0574 51.346 42.6638 52.309 42.8972C53.2721 43.1307 54.2884 42.972 55.1345 42.456ZM42.2281 17.7211C42.1151 17.4858 41.954 17.2767 41.7553 17.1074C41.5566 16.9382 41.3245 16.8124 41.0742 16.7383C40.8239 16.6642 40.5608 16.6434 40.3019 16.6772C40.0431 16.711 39.7942 16.7987 39.5713 16.9346C39.3484 17.0705 39.1564 17.2517 39.0078 17.4663C38.8593 17.681 38.7573 17.9244 38.7086 18.1809C38.6598 18.4374 38.6654 18.7012 38.7249 18.9554C38.7844 19.2096 38.8965 19.4485 39.054 19.6567C37.4748 21.1228 36.4508 23.0895 36.1554 25.224C35.86 27.3585 36.3113 29.5294 37.433 31.3693C38.501 33.1206 42.4714 41.4256 41.0515 44.4796L63.3816 30.8625C60.0164 30.7265 54.451 23.3941 53.383 21.6428C51.0292 17.7829 46.321 16.2339 42.2281 17.7211Z" fill="white"/>
</g>
</g>
<defs>
<linearGradient id="paint0_linear_4734_13097" x1="76.6843" y1="100.502" x2="186.434" y2="87.9867" gradientUnits="userSpaceOnUse">
<stop stop-color="#432D41"/>
<stop offset="0.05" stop-color="#523144"/>
<stop offset="0.21" stop-color="#80404D"/>
<stop offset="0.38" stop-color="#A64B54"/>
<stop offset="0.54" stop-color="#C4555A"/>
<stop offset="0.7" stop-color="#D95B5E"/>
<stop offset="0.85" stop-color="#E65F61"/>
<stop offset="1" stop-color="#EB6162"/>
</linearGradient>
<linearGradient id="paint1_linear_4734_13097" x1="33.6695" y1="114.259" x2="106.517" y2="105.946" gradientUnits="userSpaceOnUse">
<stop stop-color="#432D41"/>
<stop offset="0.05" stop-color="#523144"/>
<stop offset="0.21" stop-color="#80404D"/>
<stop offset="0.38" stop-color="#A64B54"/>
<stop offset="0.54" stop-color="#C4555A"/>
<stop offset="0.7" stop-color="#D95B5E"/>
<stop offset="0.85" stop-color="#E65F61"/>
<stop offset="1" stop-color="#EB6162"/>
</linearGradient>
<clipPath id="clip0_4734_13097">
<rect width="146.42" height="139.696" fill="white" transform="translate(0.789062 0.769531)"/>
</clipPath>
<clipPath id="clip1_4734_13097">
<rect width="29.8908" height="29.8908" fill="white" transform="translate(26.8125 24.7168) rotate(-31.3753)"/>
</clipPath>
</defs>
</svg>
