<svg width="26" height="26" viewBox="0 0 26 26" fill="none" xmlns="http://www.w3.org/2000/svg">
<path d="M13.5039 21.8468C13.2002 22.0511 12.803 22.0511 12.4993 21.8468L12.4964 21.8449L12.4903 21.8408L12.4685 21.8259C12.4498 21.8132 12.4228 21.7946 12.388 21.7706C12.3185 21.7224 12.2181 21.6521 12.091 21.5612C11.8371 21.3794 11.4765 21.1151 11.0448 20.7812C10.1827 20.1146 9.02982 19.1652 7.87333 18.0379C6.72017 16.9137 5.54225 15.5921 4.64741 14.1788C3.7584 12.7747 3.10156 11.2059 3.10156 9.60589C3.10156 6.47005 5.03434 4.42458 7.44612 4.05868C9.42112 3.75906 11.548 4.60705 13.0016 6.59683C14.4552 4.60705 16.5821 3.75906 18.5571 4.05868C20.9688 4.42458 22.9016 6.47005 22.9016 9.60589C22.9016 11.2059 22.2448 12.7747 21.3558 14.1788C20.4609 15.5921 19.283 16.9137 18.1298 18.0379C16.9733 19.1652 15.8204 20.1146 14.9584 20.7812C14.5267 21.1151 14.1661 21.3794 13.9121 21.5612C13.7851 21.6521 13.6846 21.7224 13.6152 21.7706C13.5804 21.7946 13.5534 21.8132 13.5347 21.8259L13.5128 21.8408L13.5067 21.8449L13.5039 21.8468Z" fill="white" stroke="black" stroke-width="1.5" stroke-linecap="round" stroke-linejoin="round"/>
</svg>
