<svg width="175" height="54" viewBox="0 0 175 54" fill="none" xmlns="http://www.w3.org/2000/svg">
<rect width="175" height="54" rx="8" fill="black"/>
<path d="M59.5 34.0092C58.8163 35.5701 58.4893 36.2681 57.6113 37.6475C56.3845 39.5739 54.6525 41.9778 52.5111 41.9943C50.6063 42.0108 50.1147 40.7127 47.5298 40.734C44.9448 40.7469 44.4063 42.0179 42.4993 41.9978C40.3579 41.9778 38.7184 39.812 37.4905 37.8891C34.0572 32.4954 33.6948 26.1738 35.8168 22.8103C37.3179 20.4252 39.6937 19.0246 41.9242 19.0246C44.1959 19.0246 45.6239 20.3121 47.5023 20.3121C49.3247 20.3121 50.4349 19.0211 53.0621 19.0211C55.0492 19.0211 57.1505 20.1376 58.6517 22.064C53.7401 24.8393 54.5381 32.0733 59.5 34.0092ZM51.0682 16.8683C52.024 15.6033 52.7489 13.8184 52.4859 11.998C50.9265 12.1077 49.1029 13.1346 48.0374 14.4644C47.0724 15.6752 46.2721 17.4743 46.5843 19.2144C48.2855 19.271 50.0461 18.2253 51.0682 16.8683Z" fill="white"/>
<path d="M77.312 14.488H81.524V15.136C81.524 16.336 81.14 17.308 80.372 18.052C79.604 18.796 78.612 19.168 77.396 19.168C76.1 19.168 75.024 18.748 74.168 17.908C73.32 17.06 72.896 16.028 72.896 14.812C72.896 13.588 73.316 12.552 74.156 11.704C75.004 10.856 76.052 10.432 77.3 10.432C78.076 10.432 78.788 10.608 79.436 10.96C80.084 11.312 80.592 11.788 80.96 12.388L79.544 13.204C79.344 12.86 79.04 12.58 78.632 12.364C78.224 12.148 77.776 12.04 77.288 12.04C76.48 12.04 75.82 12.304 75.308 12.832C74.796 13.344 74.54 14.004 74.54 14.812C74.54 15.604 74.8 16.26 75.32 16.78C75.84 17.292 76.536 17.548 77.408 17.548C78.04 17.548 78.568 17.408 78.992 17.128C79.416 16.848 79.704 16.456 79.856 15.952H77.312V14.488ZM88.4619 16.636H83.9379C84.1379 17.388 84.7019 17.764 85.6299 17.764C86.2219 17.764 86.6699 17.564 86.9739 17.164L88.2219 17.884C87.6299 18.74 86.7579 19.168 85.6059 19.168C84.6139 19.168 83.8179 18.868 83.2179 18.268C82.6179 17.668 82.3179 16.912 82.3179 16C82.3179 15.104 82.6139 14.352 83.2059 13.744C83.7899 13.136 84.5499 12.832 85.4859 12.832C86.3739 12.832 87.0979 13.136 87.6579 13.744C88.2339 14.352 88.5219 15.104 88.5219 16C88.5219 16.168 88.5019 16.38 88.4619 16.636ZM83.9139 15.436H86.9739C86.8859 15.044 86.7059 14.744 86.4339 14.536C86.1699 14.328 85.8539 14.224 85.4859 14.224C85.0699 14.224 84.7259 14.332 84.4539 14.548C84.1819 14.756 84.0019 15.052 83.9139 15.436ZM92.8588 13V14.488H91.5028V16.984C91.5028 17.192 91.5548 17.344 91.6588 17.44C91.7628 17.536 91.9148 17.592 92.1148 17.608C92.3148 17.616 92.5628 17.612 92.8588 17.596V19C91.8108 19.12 91.0628 19.024 90.6148 18.712C90.1748 18.392 89.9548 17.816 89.9548 16.984V14.488H88.9108V13H89.9548V11.788L91.5028 11.32V13H92.8588ZM97.8119 12.28C97.5559 12.28 97.3319 12.188 97.1399 12.004C96.9559 11.812 96.8639 11.588 96.8639 11.332C96.8639 11.076 96.9559 10.852 97.1399 10.66C97.3319 10.468 97.5559 10.372 97.8119 10.372C98.0759 10.372 98.2999 10.468 98.4839 10.66C98.6759 10.852 98.7719 11.076 98.7719 11.332C98.7719 11.588 98.6759 11.812 98.4839 12.004C98.2999 12.188 98.0759 12.28 97.8119 12.28ZM98.5919 19H97.0439V13H98.5919V19ZM103.441 13V14.488H102.085V16.984C102.085 17.192 102.137 17.344 102.241 17.44C102.345 17.536 102.497 17.592 102.697 17.608C102.897 17.616 103.145 17.612 103.441 17.596V19C102.393 19.12 101.645 19.024 101.197 18.712C100.757 18.392 100.537 17.816 100.537 16.984V14.488H99.4928V13H100.537V11.788L102.085 11.32V13H103.441ZM112.738 18.256C112.13 18.864 111.378 19.168 110.482 19.168C109.586 19.168 108.834 18.864 108.226 18.256C107.618 17.648 107.314 16.896 107.314 16C107.314 15.112 107.618 14.364 108.226 13.756C108.842 13.14 109.594 12.832 110.482 12.832C111.37 12.832 112.122 13.14 112.738 13.756C113.354 14.372 113.662 15.12 113.662 16C113.662 16.888 113.354 17.64 112.738 18.256ZM109.318 17.188C109.63 17.5 110.018 17.656 110.482 17.656C110.946 17.656 111.334 17.5 111.646 17.188C111.958 16.876 112.114 16.48 112.114 16C112.114 15.52 111.958 15.124 111.646 14.812C111.334 14.5 110.946 14.344 110.482 14.344C110.018 14.344 109.63 14.5 109.318 14.812C109.014 15.132 108.862 15.528 108.862 16C108.862 16.472 109.014 16.868 109.318 17.188ZM118.087 12.832C118.751 12.832 119.291 13.052 119.707 13.492C120.139 13.94 120.355 14.548 120.355 15.316V19H118.807V15.508C118.807 15.116 118.699 14.812 118.483 14.596C118.275 14.38 117.987 14.272 117.619 14.272C117.211 14.272 116.887 14.4 116.647 14.656C116.415 14.904 116.299 15.272 116.299 15.76V19H114.751V13H116.299V13.672C116.667 13.112 117.263 12.832 118.087 12.832Z" fill="#E6E6E6"/>
<path d="M83.14 40H80.74L80.068 37.984H75.604L74.932 40H72.548L76.468 28.8H79.204L83.14 40ZM77.844 31.344L76.308 35.92H79.38L77.844 31.344ZM88.7875 31.776C89.8648 31.776 90.7822 32.1867 91.5395 33.008C92.3075 33.8293 92.6915 34.8267 92.6915 36C92.6915 37.1947 92.3075 38.1973 91.5395 39.008C90.7928 39.8187 89.8755 40.224 88.7875 40.224C87.6675 40.224 86.8035 39.8347 86.1955 39.056V43.2H84.1315V32H86.1955V32.944C86.8035 32.1653 87.6675 31.776 88.7875 31.776ZM86.8195 37.632C87.2355 38.048 87.7635 38.256 88.4035 38.256C89.0435 38.256 89.5715 38.048 89.9875 37.632C90.4142 37.2053 90.6275 36.6613 90.6275 36C90.6275 35.3387 90.4142 34.8 89.9875 34.384C89.5715 33.9573 89.0435 33.744 88.4035 33.744C87.7635 33.744 87.2355 33.9573 86.8195 34.384C86.4035 34.8 86.1955 35.3387 86.1955 36C86.1955 36.6613 86.4035 37.2053 86.8195 37.632ZM98.8031 31.776C99.8805 31.776 100.798 32.1867 101.555 33.008C102.323 33.8293 102.707 34.8267 102.707 36C102.707 37.1947 102.323 38.1973 101.555 39.008C100.808 39.8187 99.8911 40.224 98.8031 40.224C97.6831 40.224 96.8191 39.8347 96.2111 39.056V43.2H94.1471V32H96.2111V32.944C96.8191 32.1653 97.6831 31.776 98.8031 31.776ZM96.8351 37.632C97.2511 38.048 97.7791 38.256 98.4191 38.256C99.0591 38.256 99.5871 38.048 100.003 37.632C100.43 37.2053 100.643 36.6613 100.643 36C100.643 35.3387 100.43 34.8 100.003 34.384C99.5871 33.9573 99.0591 33.744 98.4191 33.744C97.7791 33.744 97.2511 33.9573 96.8351 34.384C96.4191 34.8 96.2111 35.3387 96.2111 36C96.2111 36.6613 96.4191 37.2053 96.8351 37.632ZM112.083 40.224C110.984 40.224 110.056 39.9787 109.299 39.488C108.541 38.9973 108.003 38.32 107.683 37.456L109.571 36.352C110.008 37.4933 110.867 38.064 112.147 38.064C112.744 38.064 113.192 37.9573 113.491 37.744C113.789 37.5307 113.939 37.2427 113.939 36.88C113.939 36.4853 113.763 36.1813 113.411 35.968C113.059 35.744 112.429 35.504 111.523 35.248C110.541 34.9493 109.768 34.6027 109.203 34.208C108.499 33.6853 108.147 32.9173 108.147 31.904C108.147 30.88 108.504 30.0747 109.219 29.488C109.933 28.88 110.803 28.576 111.827 28.576C112.723 28.576 113.517 28.7947 114.211 29.232C114.904 29.6693 115.443 30.288 115.827 31.088L113.971 32.16C113.523 31.2 112.808 30.72 111.827 30.72C111.379 30.72 111.021 30.8267 110.755 31.04C110.488 31.2427 110.355 31.5093 110.355 31.84C110.355 32.192 110.499 32.48 110.787 32.704C111.107 32.928 111.672 33.1627 112.483 33.408L113.251 33.664C113.389 33.7067 113.629 33.7973 113.971 33.936C114.291 34.0533 114.525 34.1653 114.675 34.272C115.197 34.592 115.549 34.9227 115.731 35.264C116.008 35.712 116.147 36.24 116.147 36.848C116.147 37.8827 115.768 38.704 115.011 39.312C114.253 39.92 113.277 40.224 112.083 40.224ZM121.833 32V33.984H120.025V37.312C120.025 37.5893 120.094 37.792 120.233 37.92C120.371 38.048 120.574 38.1227 120.841 38.144C121.107 38.1547 121.438 38.1493 121.833 38.128V40C120.435 40.16 119.438 40.032 118.841 39.616C118.254 39.1893 117.961 38.4213 117.961 37.312V33.984H116.569V32H117.961V30.384L120.025 29.76V32H121.833ZM129.854 39.008C129.043 39.8187 128.04 40.224 126.846 40.224C125.651 40.224 124.648 39.8187 123.838 39.008C123.027 38.1973 122.622 37.1947 122.622 36C122.622 34.816 123.027 33.8187 123.838 33.008C124.659 32.1867 125.662 31.776 126.846 31.776C128.03 31.776 129.032 32.1867 129.854 33.008C130.675 33.8293 131.086 34.8267 131.086 36C131.086 37.184 130.675 38.1867 129.854 39.008ZM125.294 37.584C125.71 38 126.227 38.208 126.846 38.208C127.464 38.208 127.982 38 128.398 37.584C128.814 37.168 129.022 36.64 129.022 36C129.022 35.36 128.814 34.832 128.398 34.416C127.982 34 127.464 33.792 126.846 33.792C126.227 33.792 125.71 34 125.294 34.416C124.888 34.8427 124.686 35.3707 124.686 36C124.686 36.6293 124.888 37.1573 125.294 37.584ZM134.602 32V33.376C134.783 32.8747 135.092 32.496 135.53 32.24C135.967 31.9733 136.468 31.84 137.034 31.84V34.144C136.404 34.0587 135.839 34.1867 135.338 34.528C134.847 34.8587 134.602 35.408 134.602 36.176V40H132.538V32H134.602ZM145.72 36.848H139.688C139.955 37.8507 140.707 38.352 141.944 38.352C142.733 38.352 143.331 38.0853 143.736 37.552L145.4 38.512C144.611 39.6533 143.448 40.224 141.912 40.224C140.589 40.224 139.528 39.824 138.728 39.024C137.928 38.224 137.528 37.216 137.528 36C137.528 34.8053 137.923 33.8027 138.712 32.992C139.491 32.1813 140.504 31.776 141.752 31.776C142.936 31.776 143.901 32.1813 144.648 32.992C145.416 33.8027 145.8 34.8053 145.8 36C145.8 36.224 145.773 36.5067 145.72 36.848ZM139.656 35.248H143.736C143.619 34.7253 143.379 34.3253 143.016 34.048C142.664 33.7707 142.243 33.632 141.752 33.632C141.197 33.632 140.739 33.776 140.376 34.064C140.013 34.3413 139.773 34.736 139.656 35.248Z" fill="white"/>
</svg>
