<svg width="225" height="34" viewBox="0 0 225 34" fill="none" xmlns="http://www.w3.org/2000/svg">
<path d="M19.8629 1.45251C19.9135 1.45251 19.9575 1.4547 19.9971 1.45906C20.5251 1.52667 20.7297 1.48959 21.592 2.67603C22.4675 3.87991 25.2899 9.71396 25.8156 10.7346C26.3414 11.751 29.5421 18.8325 29.9469 20.4355C30.3165 21.9011 31.1216 23.3711 28.9504 24.6753C26.5834 26.0973 23.5124 27.1812 22.3971 27.5585C21.2686 27.9402 19.379 28.6708 18.3011 28.9238C17.7225 29.059 17.3728 29.1986 16.825 29.1986C16.352 29.1986 15.7317 29.0939 14.689 28.7908C12.443 28.1387 10.1882 27.4386 8.86827 26.95C7.54618 26.4615 5.20998 25.5913 4.10787 24.7843C3.05636 24.0145 2.37882 23.9709 2.5812 21.3515C2.79018 18.6515 3.33134 17.0376 3.91429 15.1903C4.49724 13.3431 5.57735 10.0411 6.27249 8.84158C6.96763 7.64206 7.43619 6.79585 9.63381 5.54398C11.8314 4.29212 13.3405 3.57458 14.6164 2.99009C15.8351 2.43176 18.8664 1.45251 19.8651 1.45251H19.8629ZM19.8651 0.00218142C18.4265 0.00218142 15.0607 1.18862 14.0026 1.67279C12.652 2.29218 11.0989 3.03589 8.90347 4.28557C6.39128 5.7141 5.76213 6.80675 5.02959 8.06952L5.001 8.11751C4.43125 9.1033 3.59532 11.3366 2.51521 14.7563L2.43821 15.0028C1.87066 16.7999 1.33391 18.4967 1.12052 21.2403C0.915942 23.8923 1.52969 24.7953 2.89357 25.7134C3.01236 25.7941 3.12456 25.8683 3.23895 25.9512C4.42025 26.817 6.49907 27.6218 8.35791 28.3088C10.0342 28.9282 12.7883 29.7482 14.2798 30.1822C15.4039 30.5093 16.1651 30.6489 16.8272 30.6489C17.4277 30.6489 17.8611 30.5355 18.2791 30.4265C18.3913 30.3981 18.5079 30.3654 18.6398 30.3349C19.4868 30.1364 20.6945 29.7046 21.7592 29.3229C22.1683 29.1768 22.5555 29.0372 22.8701 28.9303C24.4254 28.4047 27.3819 27.3143 29.7093 25.9163C32.5581 24.2064 31.8761 21.8619 31.511 20.6013C31.4582 20.4203 31.4076 20.248 31.3658 20.0822C30.906 18.2589 27.5953 10.992 27.1179 10.0716C27.0101 9.86227 26.7902 9.42171 26.513 8.86339C25.0061 5.83187 23.4772 2.78944 22.7777 1.82764C21.8428 0.540876 21.3016 0.154847 20.2545 0.0283518L20.1819 0.0196278C20.0807 0.00654206 19.9751 0 19.8607 0L19.8651 0.00218142Z" fill="#E03D59"/>
<path d="M11.5097 3.1836C13.296 3.1836 14.629 3.41697 16.1051 3.65687C17.9926 3.9622 21.3781 4.5467 22.6496 5.05704C23.9233 5.56739 24.8164 5.90761 26.3585 7.89882C27.9005 9.89003 28.8223 11.2793 29.5768 12.4548C30.3335 13.6347 31.8646 16.7077 31.8536 17.5561C31.847 18.0882 31.9306 18.2867 30.8967 19.3139C29.8474 20.3564 24.559 24.0073 23.6395 24.6791C22.7222 25.3486 16.2723 29.5579 14.7654 30.1925C13.9955 30.5175 13.2432 30.9777 12.4512 30.9777C11.8265 30.9777 11.1797 30.692 10.4802 29.8305C8.74675 27.6975 7.24207 24.8187 6.71192 23.7696C6.17516 22.7097 5.18744 20.9475 4.78268 19.9159C4.37791 18.8865 4.07654 18.64 4.38671 16.3217C4.69689 14.0033 5.05326 11.6697 5.33923 10.2892C5.62521 8.90861 6.13337 6.4703 6.76251 5.25987C7.36306 4.10396 7.30587 3.42787 9.89505 3.24467C10.4758 3.20323 11.0104 3.18578 11.5097 3.18578V3.1836ZM11.5097 1.78343C10.9532 1.78343 10.3922 1.80524 9.79386 1.84668C7.17388 2.03424 6.38414 2.76704 5.6912 4.24136C5.63181 4.36568 5.57241 4.49436 5.50642 4.62085C4.83767 5.90761 4.35592 8.07766 3.95555 10.01C3.59478 11.7569 3.19441 14.5987 2.98763 16.1385C2.69946 18.2867 2.87764 19.0217 3.3264 20.0794C3.3704 20.1863 3.4188 20.2997 3.46939 20.424C3.78396 21.2288 4.38231 22.3585 4.90807 23.3552C5.11045 23.7391 5.30184 24.1011 5.45362 24.3977C6.19276 25.8568 7.68424 28.6157 9.38469 30.7094C10.2844 31.8173 11.3183 32.38 12.4578 32.38C13.3818 32.38 14.1561 32.0202 14.8402 31.7017C15.0096 31.6232 15.1702 31.5491 15.3242 31.4837C17.0378 30.7618 23.6527 26.4151 24.4842 25.8088C24.6712 25.6714 25.0716 25.3901 25.5753 25.0324C28.3163 23.0979 31.0639 21.1372 31.902 20.3041C32.9777 19.2354 33.2725 18.6684 33.2703 17.6673V17.5714C33.2879 16.1319 31.2838 12.4985 30.7713 11.7002C29.9706 10.4549 29.018 9.02856 27.4804 7.04389C25.7249 4.77788 24.57 4.31334 23.2325 3.77682L23.1797 3.75719C22.1326 3.33845 19.8294 2.83901 16.3317 2.27196L16.0787 2.23053C14.6532 1.99934 13.3048 1.78125 11.5075 1.78125L11.5097 1.78343Z" fill="#9F76A1"/>
<path d="M20.75 3.75736C22.1007 3.75736 23.7681 3.80535 24.7646 4.08015C26.0097 4.42038 26.6433 4.21754 27.422 6.73218C28.2228 9.32097 28.3217 11.0199 28.4691 12.9479C28.6165 14.8759 28.8409 18.3414 28.6495 19.7067C28.4559 21.0741 28.3393 22.0294 26.7907 23.9813C25.2442 25.9333 24.1289 27.1437 23.1764 28.1448C22.2239 29.148 19.3487 31.3486 18.8229 31.4969C18.6448 31.5471 18.5062 31.5907 18.3478 31.5907C18.0618 31.5907 17.7054 31.4467 16.9179 30.9342C15.6772 30.1251 10.9542 25.6999 10.0985 24.941C9.24495 24.182 3.71902 18.7318 2.7621 17.384C1.88658 16.1517 0.610682 15.0678 2.11316 13.0766C3.75202 10.9043 6.15861 8.79537 7.03854 8.04512C7.92726 7.28615 9.38574 5.92959 10.2789 5.30802C11.172 4.68645 11.337 4.33314 13.627 4.13903C15.917 3.94274 18.2334 3.7879 19.6215 3.77045C19.9492 3.76609 20.3342 3.76173 20.7522 3.76173L20.75 3.75736ZM20.7522 2.35938C20.3298 2.35938 19.9361 2.36374 19.6039 2.3681C17.8462 2.38991 15.0283 2.61236 13.506 2.74322C11.3568 2.92642 10.6858 3.26883 9.76191 3.94929C9.67172 4.0169 9.57493 4.08669 9.46713 4.16302C8.76759 4.65155 7.82167 5.48686 6.99014 6.22184C6.66897 6.50536 6.3676 6.77362 6.11902 6.98517C4.89152 8.03203 2.59271 10.1061 0.982451 12.2391C-0.964385 14.8192 0.441297 16.6599 1.28383 17.7613C1.39822 17.9118 1.50821 18.0557 1.6072 18.1953C2.69611 19.7263 8.38483 25.303 9.15696 25.99C9.33295 26.1448 9.69372 26.4785 10.1513 26.8995C12.6393 29.1829 15.1537 31.4686 16.1436 32.1141C17.0059 32.6768 17.6438 33.0018 18.35 33.0018C18.691 33.0018 18.9615 32.9254 19.1595 32.8687L19.2079 32.8556C20.2198 32.5721 23.3832 29.9833 24.2081 29.1153C25.2156 28.0554 26.3595 26.8057 27.9038 24.8581C29.6658 22.6357 29.8396 21.3991 30.042 19.9684L30.0508 19.9139C30.2092 18.7972 30.152 16.4222 29.8814 12.8541L29.8616 12.5968C29.7208 10.7233 29.5888 8.95458 28.7749 6.33089C27.9962 3.81625 27.114 3.20122 25.5456 2.837C25.407 2.80429 25.2772 2.77593 25.143 2.73886C24.2147 2.48369 22.82 2.36592 20.7522 2.36592V2.35938Z" fill="#EB6162"/>
<path d="M46.9789 20.6544H41.8093C41.7455 20.6544 41.6949 20.6043 41.6949 20.541V9.51848C41.6949 9.26767 41.4837 9.11719 41.2329 9.11719H40.1858C39.9329 9.11719 39.7305 9.26985 39.7305 9.51848V22.1048C39.7305 22.3556 39.9351 22.5104 40.1858 22.5104H46.9833C47.2362 22.5104 47.4386 22.3556 47.4386 22.1048V21.0601C47.4386 20.8093 47.2318 20.6544 46.9789 20.6544Z" fill="#2C252D"/>
<path d="M53.8426 9.11719H52.7933C52.5403 9.11719 52.3379 9.26985 52.3379 9.51848V22.1048C52.3379 22.3556 52.5425 22.5104 52.7933 22.5104H53.8426C54.0955 22.5104 54.3023 22.3556 54.3023 22.1048V9.51848C54.3023 9.26767 54.0933 9.11719 53.8426 9.11719Z" fill="#2C252D"/>
<path d="M70.3433 9.11546H69.0696C68.8144 9.11546 68.5857 9.27685 68.5021 9.51676L64.9824 19.6102C64.9472 19.7127 64.802 19.7127 64.7668 19.6102L61.2229 9.51458C61.1393 9.27467 60.9105 9.11546 60.6553 9.11546H59.4014C59.1924 9.11546 59.0451 9.32047 59.1154 9.51676L63.6493 22.103C63.7373 22.3451 63.8517 22.5065 64.1112 22.5065H65.6159C65.8733 22.5065 65.9877 22.3451 66.0757 22.1052L70.6293 9.51676C70.6997 9.32047 70.5545 9.11328 70.3433 9.11328V9.11546Z" fill="#2C252D"/>
<path d="M94.1932 9.11546H89.721C89.468 9.11546 89.2656 9.26813 89.2656 9.51676V22.103C89.2656 22.3538 89.4768 22.5087 89.7276 22.5087H90.7703C91.0233 22.5087 91.2323 22.3538 91.2323 22.103V17.9069C91.2323 17.8436 91.2829 17.7935 91.3467 17.7935H94.1954C95.4471 17.7935 96.503 17.3704 97.3367 16.5394C98.1705 15.7063 98.5928 14.6682 98.5928 13.4534C98.5928 12.2386 98.1705 11.183 97.3367 10.3586C96.503 9.53203 95.4471 9.11328 94.1954 9.11328L94.1932 9.11546ZM95.9465 15.2439C95.4867 15.7172 94.8972 15.9593 94.1932 15.9593H91.3445C91.2807 15.9593 91.2301 15.9091 91.2301 15.8459V11.0652C91.2301 11.002 91.2807 10.9518 91.3445 10.9518H94.1932C94.8972 10.9518 95.4867 11.1895 95.9487 11.6563C96.4084 12.1252 96.6438 12.7293 96.6438 13.4534C96.6438 14.1775 96.4106 14.7663 95.9487 15.2418L95.9465 15.2439Z" fill="#2C252D"/>
<path d="M108.464 9.51412C108.374 9.27421 108.262 9.11719 108.004 9.11719H106.493C106.236 9.11719 106.121 9.2764 106.031 9.51412L101.297 22.1026C101.222 22.2989 101.37 22.5082 101.581 22.5082H102.791C103.059 22.5082 103.299 22.3425 103.391 22.0917L104.28 19.6686C104.306 19.5967 104.375 19.5487 104.452 19.5487H110.041C110.118 19.5487 110.187 19.5967 110.213 19.6686L111.102 22.0917C111.194 22.3425 111.434 22.5082 111.702 22.5082H112.908C113.121 22.5082 113.271 22.2967 113.196 22.0982L108.462 9.51194L108.464 9.51412ZM109.333 17.7123H105.16C105.081 17.7123 105.026 17.6338 105.052 17.5597L107.138 11.8739C107.175 11.7736 107.316 11.7736 107.351 11.8739L109.436 17.5597C109.463 17.6338 109.408 17.7123 109.329 17.7123H109.333Z" fill="#2C252D"/>
<path d="M142.461 20.6527H136.946C136.882 20.6527 136.832 20.6025 136.832 20.5393V16.7772C136.832 16.7139 136.882 16.6637 136.946 16.6637H142.001C142.254 16.6637 142.457 16.5089 142.457 16.2581V15.2309C142.457 14.98 142.252 14.8274 142.001 14.8274H136.946C136.882 14.8274 136.832 14.7772 136.832 14.714V11.0827C136.832 11.0194 136.882 10.9693 136.946 10.9693H142.461C142.714 10.9693 142.916 10.8188 142.916 10.568V9.49931C142.916 9.2485 142.712 9.11328 142.461 9.11328H135.323C135.07 9.11328 134.867 9.26595 134.867 9.51458V22.1009C134.867 22.3517 135.072 22.5065 135.323 22.5065H142.461C142.714 22.5065 142.916 22.3517 142.916 22.1009V21.0562C142.919 20.8054 142.712 20.6505 142.461 20.6505V20.6527Z" fill="#2C252D"/>
<path d="M129.51 19.0622L128.782 18.6456C128.544 18.5104 128.439 18.5169 128.256 18.7547C127.873 19.2563 127.339 19.8037 126.747 20.1439C126.019 20.5627 125.203 20.7742 124.321 20.7742C122.838 20.7742 121.611 20.2944 120.676 19.3479C119.738 18.4013 119.263 17.2062 119.263 15.7973C119.263 14.3884 119.738 13.1758 120.676 12.2292C121.613 11.2827 122.838 10.8029 124.321 10.8029C125.203 10.8029 126.019 11.0145 126.747 11.4332C127.295 11.7473 127.794 12.3078 128.214 12.7549C128.454 13.0122 128.564 13.0144 128.811 12.9053L129.558 12.4801C129.787 12.3317 129.818 12.214 129.818 12.0831C129.818 11.9937 129.774 11.8934 129.695 11.7821C129.162 11.021 128.465 10.3929 127.623 9.91525C126.622 9.34821 125.511 9.0625 124.321 9.0625C122.347 9.0625 120.695 9.71678 119.409 11.0101C118.124 12.3034 117.473 13.9129 117.473 15.7951C117.473 17.6773 118.124 19.289 119.409 20.5801C120.693 21.8734 122.345 22.5277 124.321 22.5277C125.513 22.5277 126.628 22.2376 127.634 21.664C128.43 21.2104 129.092 20.6259 129.605 19.9258C129.712 19.7775 129.84 19.5987 129.816 19.4177C129.798 19.2694 129.765 19.1974 129.51 19.0578V19.0622Z" fill="#2C252D"/>
<path d="M81.7655 15.6164C80.934 15.2108 79.6229 14.8313 79.6229 14.8313C78.6462 14.5216 77.1019 14.1247 76.9919 12.7397C76.9479 12.1858 77.1899 11.7561 77.599 11.4312C78.0082 11.1062 78.556 10.9426 79.2269 10.9426C80.4038 10.9426 81.0594 11.5991 81.8095 12.4235C81.9877 12.622 82.1043 12.7397 82.2472 12.7572C82.333 12.7681 82.3902 12.7681 82.5024 12.7114L83.4682 12.1662C83.5979 12.092 83.6529 11.9306 83.5869 11.7976C83.2064 11.0233 82.6476 10.3821 81.9327 9.89797C81.1671 9.38108 80.2586 9.11719 79.2291 9.11719C78.0874 9.11719 77.1019 9.45087 76.3056 10.1117C75.5048 10.7769 75.0979 11.6842 75.0979 12.8117C75.0979 13.2828 75.1726 13.719 75.353 14.0876C75.804 15.0058 76.3781 15.3438 76.9017 15.6688C77.3043 15.9196 78.666 16.3732 79.2005 16.5564C80.2762 16.8923 81.0506 17.2129 81.5059 17.5095C81.9459 17.7974 82.1593 18.2183 82.1593 18.7941C82.1593 19.3698 81.9437 19.806 81.4993 20.1484C81.0528 20.4909 80.395 20.6653 79.5393 20.6653C78.0082 20.6653 77.0755 20.1354 76.3957 18.914C76.3144 18.7679 76.2374 18.5629 76.0702 18.5084C75.9734 18.4757 75.9074 18.4669 75.6984 18.5738L74.8405 19.0841C74.5699 19.239 74.5039 19.3698 74.6645 19.7014C75.0649 20.5367 75.6412 21.1735 76.376 21.6555C77.2383 22.2204 78.2898 22.5082 79.5019 22.5082C80.8394 22.5082 81.9393 22.168 82.773 21.4963C83.6111 20.8202 84.0379 19.8976 84.0379 18.7592C84.0379 17.5291 83.3802 16.3994 81.7677 15.6142L81.7655 15.6164Z" fill="#2C252D"/>
<path d="M156.699 19.2655L158.105 18.4499C158.272 18.3539 158.479 18.4302 158.558 18.6047C159.101 19.8086 160.146 20.585 161.873 20.585C163.6 20.585 164.451 19.7781 164.451 18.777C164.451 17.5579 163.36 17.1457 161.299 16.5175C159.136 15.8698 157.036 15.0825 157.036 12.4871C157.036 9.8918 159.158 8.51562 161.497 8.51562C163.661 8.51562 165.289 9.5952 166.196 11.268C166.277 11.4185 166.218 11.6104 166.068 11.6976L164.711 12.4741C164.55 12.5657 164.35 12.5002 164.262 12.3388C163.747 11.3945 162.898 10.7184 161.499 10.7184C160.1 10.7184 159.319 11.3858 159.319 12.4283C159.319 13.4707 160.093 13.9418 162.115 14.5721C164.416 15.3006 166.735 16.0072 166.735 18.7399C166.735 21.2568 164.711 22.79 161.818 22.79C159.198 22.79 157.361 21.5643 156.565 19.6668C156.503 19.5207 156.565 19.3484 156.706 19.2677L156.699 19.2655Z" fill="#2C252D" stroke="#2C252D" stroke-miterlimit="10"/>
<path d="M179.406 10.9291H175.692V22.3355C175.692 22.4424 175.606 22.5274 175.499 22.5274H173.605C173.497 22.5274 173.411 22.4424 173.411 22.3355V10.9291H169.678C169.57 10.9291 169.484 10.8441 169.484 10.7372V8.95755C169.484 8.85068 169.57 8.76562 169.678 8.76562H179.403C179.511 8.76562 179.597 8.85068 179.597 8.95755V10.7372C179.597 10.8441 179.511 10.9291 179.403 10.9291H179.406Z" fill="#2C252D" stroke="#2C252D" stroke-miterlimit="10"/>
<path d="M182.178 15.6479C182.178 11.5521 185.539 8.34606 189.692 8.51835C193.417 8.67102 196.474 11.7549 196.571 15.4494C196.679 19.5343 193.467 22.784 189.376 22.784C185.284 22.784 182.178 19.639 182.178 15.6479ZM194.294 15.6479C194.294 12.817 192.154 10.7124 189.378 10.7124C186.602 10.7124 184.461 12.8148 184.461 15.6479C184.461 18.4809 186.602 20.5834 189.378 20.5834C192.154 20.5834 194.294 18.4788 194.294 15.6479Z" fill="#2C252D" stroke="#2C252D" stroke-miterlimit="10"/>
<path d="M206.011 17.5134H203.314V22.2701C203.314 22.4118 203.198 22.5253 203.057 22.5253H201.293C201.15 22.5253 201.035 22.4097 201.035 22.2701V9.0208C201.035 8.87903 201.152 8.76562 201.293 8.76562H206.433C208.127 8.76562 209.744 9.63801 210.523 11.1276C211.834 13.6292 210.534 16.2834 208.29 17.1797L211.216 22.1414C211.317 22.3115 211.192 22.5253 210.994 22.5253H208.946L206.011 17.5112V17.5134ZM203.314 15.4895H206.585C207.795 15.4895 208.765 14.4666 208.765 13.1886C208.765 11.9106 207.793 10.8877 206.585 10.8877H203.314V15.4873V15.4895Z" fill="#2C252D" stroke="#2C252D" stroke-miterlimit="10"/>
<path d="M223.998 20.6845V22.2068C223.998 22.3835 223.853 22.5274 223.674 22.5274H215.764C215.656 22.5274 215.57 22.4424 215.57 22.3355V8.95755C215.57 8.85068 215.656 8.76562 215.764 8.76562H223.705C223.813 8.76562 223.899 8.85068 223.899 8.95755V10.7372C223.899 10.8441 223.813 10.9291 223.705 10.9291H217.852V14.5081H223.08C223.259 14.5081 223.404 14.652 223.404 14.8287V16.3314C223.404 16.508 223.259 16.652 223.08 16.652H217.852V20.3683H223.677C223.855 20.3683 224 20.5122 224 20.6889L223.998 20.6845Z" fill="#2C252D" stroke="#2C252D" stroke-miterlimit="10"/>
</svg>
