<svg width="297" height="298" viewBox="0 0 297 298" fill="none" xmlns="http://www.w3.org/2000/svg">
<path d="M261.72 74.5746C261.72 78.408 258.849 81.5693 255.141 82.0419C254.873 82.0734 254.605 82.0945 254.331 82.0997C254.284 82.0997 254.237 82.0997 254.184 82.0997C254.09 82.0997 253.995 82.0997 253.9 82.0997C253.811 82.0997 253.727 82.0892 253.643 82.084C253.511 82.0735 253.385 82.063 253.253 82.0472C252.964 82.0104 252.68 81.9579 252.402 81.8949C249.099 81.0967 246.648 78.1245 246.648 74.5798C246.648 70.4208 250.025 67.0547 254.184 67.0547C258.344 67.0547 261.72 70.426 261.72 74.5798V74.5746Z" fill="#EBEEF8"/>
<path d="M70.0443 197.397C70.0443 201.23 67.173 204.392 63.4656 204.864C63.1974 204.896 62.9292 204.917 62.6557 204.922C62.6084 204.922 62.5611 204.922 62.5085 204.922C62.4138 204.922 62.3192 204.922 62.2245 204.922C62.1351 204.922 62.051 204.911 61.9668 204.906C61.8353 204.896 61.7091 204.885 61.5777 204.869C61.2884 204.833 61.0045 204.78 60.7257 204.717C57.4232 203.919 54.9727 200.947 54.9727 197.402C54.9727 193.243 58.3488 189.877 62.5085 189.877C66.6682 189.877 70.0443 193.248 70.0443 197.402V197.397Z" fill="#EBEEF8"/>
<mask id="mask0_3365_75272" style="mask-type:alpha" maskUnits="userSpaceOnUse" x="59" y="43" width="212" height="208">
<path d="M232.88 88.7548C237.528 94.2288 240.795 100.38 243.92 106.652C251.456 121.574 258.727 136.474 263.926 152.389C266.853 161.308 269.373 170.324 270.146 179.585C270.603 184.156 269.146 187.624 265.206 190.473C258.445 195.471 250.887 198.666 243.309 202.126C226.1 209.797 208.789 217.059 191.233 224.033C170.527 232.194 149.597 239.802 128.217 246.305C122.77 247.955 117.221 249.196 111.569 250.028C101.201 251.643 94.808 248.146 89.7854 238.775C81.5985 223.662 75.7482 207.556 70.5886 191.111C68.0286 182.625 65.733 174.161 62.8888 165.915C58.4075 152.862 58.6859 140.229 64.0277 127.512C69.0854 115.036 73.125 101.936 78.4471 89.4834C83.5876 77.6807 88.4834 65.5898 96.0469 55.2005C97.6891 52.8143 99.4536 50.5722 101.34 48.4741C104.708 44.3753 109.199 43.0405 114.243 43.2202C124.208 43.4355 134.177 45.3832 143.842 47.837C159.51 51.8875 174.206 58.2504 189.348 63.9865C197.368 67.094 205.367 70.4663 213.062 74.3446C220.249 77.9114 227.376 82.2723 232.88 88.7548Z" fill="#D9C8D9"/>
</mask>
<g mask="url(#mask0_3365_75272)">
<path d="M155.271 175.061V247.582C154.136 247.535 153.007 247.465 151.883 247.371C150.186 247.236 148.504 247.049 146.833 246.82C143.882 246.41 140.967 245.853 138.104 245.149C137.313 244.961 136.527 244.756 135.746 244.545V175.061H155.271Z" fill="#432D41"/>
</g>
<path d="M138.535 175.061V242.933C135.746 244.197 138.535 242.933 135.746 244.197V175.061H138.535Z" fill="url(#paint0_linear_3365_75272)"/>
<path d="M117.874 74.5762H200.157C217.848 74.5762 232.204 88.9175 232.204 106.578V183.62H51.8497C46.186 183.62 41.5898 179.03 41.5898 173.374V150.757C41.5898 108.715 75.7718 74.5814 117.874 74.5814V74.5762Z" fill="#EB6162"/>
<path d="M203.563 74.7547H127.794C85.6663 74.7547 51.5106 108.862 51.5106 150.93V173.553C51.5106 178.552 55.1023 182.722 59.851 183.615H51.8419C46.1729 183.615 41.582 179.03 41.582 173.369V150.752C41.582 108.678 75.7325 74.5762 117.866 74.5762H200.15C201.301 74.5762 202.442 74.6392 203.563 74.7547Z" fill="url(#paint1_linear_3365_75272)"/>
<path d="M199.628 81.0209H199.702C214.437 81.0209 226.406 92.9676 226.406 107.687V168.912C226.406 172.425 223.551 175.282 220.027 175.282H172.93V107.682C172.93 92.9676 184.893 81.0156 199.634 81.0156L199.628 81.0209Z" fill="url(#paint2_linear_3365_75272)"/>
<path d="M196.335 81.0195H196.409C211.144 81.0195 223.113 92.9663 223.113 107.686V169.572C223.113 172.723 220.552 175.281 217.397 175.281H175.353C172.198 175.281 169.637 172.723 169.637 169.572V107.686C169.637 92.9715 181.6 81.0195 196.341 81.0195H196.335Z" fill="#432D41"/>
<path d="M255.127 175.873H138.95C136.809 175.873 135.074 177.606 135.074 179.743V179.749C135.074 181.886 136.809 183.619 138.95 183.619H255.127C257.267 183.619 259.002 181.886 259.002 179.749V179.743C259.002 177.606 257.267 175.873 255.127 175.873Z" fill="#EB6162"/>
<path d="M93.4624 117.714C93.4624 121.007 91.3273 123.806 88.3614 124.793C87.6146 125.045 86.8206 125.181 85.9897 125.181C85.1588 125.181 84.3647 125.045 83.618 124.793C80.652 123.806 78.5117 121.007 78.5117 117.714C78.5117 114.422 80.652 111.628 83.618 110.641C84.3647 110.388 85.1588 110.252 85.9897 110.252C86.8206 110.252 87.6146 110.388 88.3614 110.641C91.3273 111.628 93.4624 114.422 93.4624 117.714Z" fill="#BC3545"/>
<path d="M80.1975 44.2732H12.0859L29.2769 24.0451L12.0859 3.82227H80.1975V44.2732Z" fill="url(#paint3_linear_3365_75272)"/>
<path d="M83.6155 44.2732H15.5039L32.6948 24.0451L15.5039 3.82227H83.6155V44.2732Z" fill="#EB6162"/>
<path d="M49.3503 23.7627C51.2487 23.7627 52.6949 23.6209 53.6993 23.3373C54.6985 23.0538 55.4452 22.4499 55.929 21.5204C56.4128 20.5961 56.6547 19.1625 56.6547 17.2248C56.6547 16.4476 56.5601 15.8332 56.3707 15.3921C56.1814 14.951 55.8028 14.7304 55.2349 14.7304C54.6669 14.7304 54.2567 14.9825 54.0674 15.4866C53.8781 15.9907 53.7834 16.6839 53.7834 17.5714V19.8452H48.125V15.933C48.125 13.9112 48.7666 12.3883 50.055 11.3538C51.3381 10.3246 53.0682 9.80469 55.2401 9.80469C57.8748 9.80469 59.7469 10.5031 60.8512 11.9052C61.9556 13.3073 62.513 15.4236 62.513 18.2646C62.513 21.1055 61.8346 23.2848 60.4726 24.9915C59.1106 26.6982 57.128 27.5489 54.5144 27.5489V30.1693H49.3608V23.7627H49.3503ZM49.1925 37.1798V32.5691H54.6932V37.1798H49.1925Z" fill="white"/>
<path d="M85.9889 1.44522V125.182C85.158 125.182 84.3639 125.045 83.6172 124.793V1.44522C83.6172 0.788804 84.1483 0.263672 84.8004 0.263672C85.4578 0.263672 85.9836 0.794055 85.9836 1.44522H85.9889Z" fill="#432D41"/>
<defs>
<linearGradient id="paint0_linear_3365_75272" x1="137.138" y1="244.793" x2="137.138" y2="175.061" gradientUnits="userSpaceOnUse">
<stop stop-color="white"/>
<stop offset="1" stop-color="#432D41" stop-opacity="0"/>
</linearGradient>
<linearGradient id="paint1_linear_3365_75272" x1="122.572" y1="183.615" x2="122.572" y2="74.5762" gradientUnits="userSpaceOnUse">
<stop stop-color="#FA515F"/>
<stop offset="1" stop-color="white"/>
</linearGradient>
<linearGradient id="paint2_linear_3365_75272" x1="199.665" y1="175.277" x2="199.665" y2="81.0209" gradientUnits="userSpaceOnUse">
<stop stop-color="#EB6162"/>
<stop offset="1" stop-color="white"/>
</linearGradient>
<linearGradient id="paint3_linear_3365_75272" x1="12.0859" y1="24.0451" x2="80.1975" y2="24.0451" gradientUnits="userSpaceOnUse">
<stop stop-color="#EB6162"/>
<stop offset="1" stop-color="white"/>
</linearGradient>
</defs>
</svg>
