<svg width="317" height="318" viewBox="0 0 317 318" fill="none" xmlns="http://www.w3.org/2000/svg">
<path opacity="0.5" d="M248.528 94.4349C253.489 100.277 256.975 106.841 260.31 113.535C268.352 129.46 276.112 145.36 281.66 162.345C284.784 171.863 287.474 181.485 288.298 191.369C288.785 196.246 287.231 199.948 283.027 202.988C275.811 208.322 267.745 211.732 259.657 215.424C241.292 223.61 222.818 231.361 204.082 238.803C181.986 247.512 159.649 255.632 136.832 262.571C131.019 264.332 125.097 265.657 119.066 266.545C108.001 268.268 101.178 264.536 95.8184 254.536C87.0814 238.407 80.838 221.219 75.3317 203.669C72.5997 194.612 70.1499 185.58 67.1146 176.78C62.3322 162.85 62.6292 149.368 68.33 135.796C73.7275 122.482 78.0385 108.502 83.7183 95.2125C89.2041 82.6167 94.4289 69.7134 102.501 58.626C104.253 56.0795 106.136 53.6867 108.15 51.4477C111.743 47.0734 116.537 45.649 121.919 45.8407C132.554 46.0705 143.193 48.1491 153.507 50.7677C170.228 55.0904 185.912 61.8808 202.071 68.0024C210.629 71.3187 219.166 74.9175 227.379 79.0564C235.048 82.8629 242.654 87.5169 248.528 94.4349Z" fill="#D9C8D9"/>
<path d="M142.703 132.35L241.567 140.872V243.929L142.703 235.407V132.35Z" fill="#C0484E"/>
<path d="M142.703 132.349L241.567 140.872L261.868 118.73L163.004 110.207L142.703 132.349Z" fill="url(#paint0_linear_3836_23307)"/>
<path d="M142.701 132.35L86.0586 140.872V243.929L142.701 235.407V132.35Z" fill="url(#paint1_linear_3836_23307)"/>
<path d="M142.701 132.349L86.0586 140.872L63.1836 125.548L119.826 117.025L142.701 132.349Z" fill="#EA6162"/>
<path d="M184.922 252.453L86.0586 243.93V140.873L184.922 149.396V252.453Z" fill="#EA6162"/>
<path d="M159.543 171.572L60.6797 163.049L86.0604 140.873L184.924 149.396L159.543 171.572Z" fill="url(#paint2_linear_3836_23307)"/>
<path d="M184.926 252.453L241.568 243.93V140.873L184.926 149.396V252.453Z" fill="url(#paint3_linear_3836_23307)"/>
<path d="M217.159 156.231L273.801 147.708L241.568 140.873L184.926 149.396L217.159 156.231Z" fill="#EA6162"/>
<path d="M160.618 143.411C160.311 143.411 160.038 143.19 159.987 142.866V142.764C159.936 142.423 160.175 142.048 160.533 142.014C160.874 141.963 161.198 142.167 161.249 142.508L160.635 142.678H161.283C161.334 143.019 161.095 143.343 160.754 143.394C160.72 143.394 160.686 143.394 160.652 143.394L160.618 143.411Z" fill="#543952"/>
<path d="M160.328 140.716C160.005 140.716 159.715 140.46 159.698 140.136V139.812C159.647 139.454 159.902 139.148 160.26 139.113C160.618 139.079 160.925 139.335 160.942 139.693L160.976 140.017C161.01 140.375 160.755 140.682 160.397 140.716C160.38 140.716 160.363 140.716 160.346 140.716H160.328ZM160.175 137.835C159.834 137.835 159.544 137.562 159.527 137.221V136.881C159.527 136.523 159.8 136.233 160.158 136.233C160.55 136.267 160.806 136.506 160.806 136.863V137.187C160.806 137.545 160.55 137.835 160.192 137.852H160.175V137.835ZM160.209 134.954H160.175C159.817 134.954 159.544 134.648 159.561 134.29V133.932C159.613 133.574 159.919 133.284 160.26 133.335C160.618 133.369 160.874 133.676 160.857 134.017V134.341C160.823 134.682 160.55 134.954 160.209 134.954ZM160.448 132.074C160.448 132.074 160.397 132.074 160.363 132.074C160.005 132.023 159.766 131.699 159.817 131.358L159.868 131.017C159.919 130.659 160.243 130.42 160.584 130.471C160.942 130.523 161.181 130.846 161.13 131.187L161.078 131.528C161.027 131.852 160.755 132.091 160.448 132.091V132.074ZM160.942 129.227C160.942 129.227 160.857 129.227 160.806 129.227C160.465 129.142 160.243 128.801 160.328 128.46L160.397 128.119C160.465 127.778 160.806 127.557 161.164 127.642C161.505 127.727 161.726 128.068 161.641 128.409L161.573 128.75C161.505 129.04 161.249 129.244 160.942 129.244V129.227ZM161.692 126.449C161.692 126.449 161.556 126.449 161.488 126.415C161.147 126.312 160.959 125.954 161.078 125.613L161.198 125.273C161.317 124.932 161.675 124.761 162.016 124.88C162.357 125 162.527 125.358 162.408 125.699L162.306 126.005C162.221 126.278 161.965 126.449 161.692 126.449ZM187.346 126.159C187.056 126.159 186.8 125.971 186.732 125.682C186.647 125.341 186.851 124.983 187.192 124.898C187.277 124.881 187.38 124.846 187.465 124.812C187.806 124.693 188.164 124.863 188.283 125.204C188.402 125.545 188.232 125.903 187.891 126.023C187.772 126.074 187.635 126.108 187.516 126.142C187.465 126.142 187.414 126.159 187.363 126.159H187.346ZM184.823 126.125C184.823 126.125 184.738 126.125 184.686 126.125C184.567 126.108 184.448 126.074 184.328 126.04C183.988 125.954 183.783 125.596 183.868 125.255C183.954 124.915 184.311 124.71 184.652 124.795L184.959 124.863C185.3 124.932 185.522 125.273 185.454 125.613C185.385 125.92 185.13 126.125 184.823 126.125ZM182.249 124.898C182.113 124.898 181.959 124.846 181.84 124.744C181.738 124.659 181.652 124.591 181.567 124.506C181.311 124.267 181.294 123.858 181.533 123.602C181.772 123.346 182.181 123.329 182.436 123.568C182.505 123.636 182.59 123.704 182.658 123.773C182.931 123.994 182.965 124.403 182.743 124.676C182.624 124.829 182.436 124.915 182.249 124.915V124.898ZM189.681 124.54C189.544 124.54 189.408 124.505 189.306 124.42C189.016 124.216 188.965 123.807 189.169 123.517C189.238 123.432 189.289 123.363 189.34 123.278C189.527 122.988 189.919 122.903 190.226 123.091C190.516 123.278 190.601 123.67 190.414 123.977C190.346 124.079 190.277 124.182 190.192 124.284C190.073 124.454 189.868 124.54 189.681 124.54ZM162.749 123.738C162.664 123.738 162.578 123.721 162.493 123.687C162.169 123.551 162.033 123.159 162.169 122.835L162.323 122.511C162.476 122.187 162.851 122.068 163.175 122.221C163.499 122.375 163.618 122.75 163.465 123.074L163.328 123.363C163.226 123.602 162.988 123.738 162.749 123.738ZM180.51 122.613C180.272 122.613 180.05 122.477 179.931 122.255C179.88 122.153 179.828 122.034 179.777 121.915C179.641 121.591 179.777 121.216 180.101 121.079C180.425 120.943 180.8 121.079 180.936 121.403L181.073 121.693C181.226 122.017 181.09 122.392 180.783 122.545C180.698 122.596 180.596 122.613 180.493 122.613H180.51ZM190.738 121.88C190.738 121.88 190.686 121.88 190.652 121.88C190.294 121.829 190.056 121.505 190.107 121.165C190.107 121.062 190.124 120.96 190.141 120.858C190.175 120.5 190.482 120.244 190.823 120.261C191.181 120.295 191.436 120.602 191.419 120.943C191.419 121.062 191.402 121.199 191.385 121.318C191.334 121.642 191.061 121.88 190.755 121.88H190.738ZM164.113 121.199C163.993 121.199 163.874 121.165 163.772 121.096C163.465 120.909 163.38 120.517 163.567 120.21L163.755 119.92C163.942 119.613 164.334 119.528 164.641 119.716C164.931 119.903 165.033 120.295 164.846 120.602L164.675 120.892C164.556 121.079 164.351 121.199 164.13 121.199H164.113ZM179.607 119.869C179.3 119.869 179.044 119.665 178.976 119.358L178.908 119.017C178.84 118.676 179.078 118.335 179.419 118.267C179.777 118.199 180.101 118.437 180.169 118.778L180.238 119.102C180.306 119.443 180.084 119.784 179.726 119.852C179.692 119.852 179.641 119.852 179.607 119.852V119.869ZM190.363 119.051C190.107 119.051 189.868 118.898 189.766 118.642C189.732 118.557 189.698 118.454 189.647 118.369C189.493 118.045 189.647 117.67 189.954 117.517C190.277 117.363 190.652 117.517 190.806 117.824C190.857 117.943 190.908 118.045 190.959 118.165C191.096 118.488 190.925 118.863 190.601 119C190.516 119.034 190.448 119.051 190.363 119.051ZM165.783 118.846C165.647 118.846 165.493 118.795 165.374 118.71C165.101 118.488 165.05 118.079 165.289 117.807L165.425 117.636C165.647 117.363 166.09 117.278 166.363 117.5C166.635 117.721 166.703 118.079 166.482 118.352L166.277 118.608C166.158 118.761 165.971 118.846 165.783 118.846ZM179.3 117.005C178.959 117.005 178.669 116.733 178.652 116.392V116.034C178.652 115.676 178.925 115.386 179.283 115.386C179.641 115.386 179.931 115.676 179.931 116.034V116.358C179.931 116.716 179.675 117.005 179.317 117.023H179.3V117.005ZM167.76 116.75C167.59 116.75 167.419 116.682 167.283 116.545C167.044 116.29 167.061 115.88 167.317 115.642L167.573 115.403C167.846 115.182 168.238 115.199 168.476 115.454C168.715 115.727 168.681 116.119 168.425 116.358L168.186 116.579C168.067 116.699 167.914 116.75 167.76 116.75ZM188.829 116.63C188.658 116.63 188.471 116.562 188.351 116.409L188.13 116.17C187.891 115.915 187.908 115.505 188.164 115.267C188.419 115.028 188.828 115.045 189.067 115.301L189.306 115.574C189.544 115.846 189.51 116.238 189.238 116.477C189.118 116.579 188.965 116.63 188.811 116.63H188.829ZM170.044 115.011C169.84 115.011 169.618 114.909 169.499 114.721C169.311 114.432 169.397 114.023 169.703 113.835L170.01 113.648C170.317 113.477 170.709 113.562 170.88 113.869C171.067 114.176 170.948 114.568 170.658 114.738L170.385 114.909C170.283 114.977 170.164 115.011 170.044 115.011ZM186.681 114.687C186.544 114.687 186.425 114.653 186.306 114.568L186.033 114.38C185.743 114.176 185.658 113.784 185.863 113.494C186.067 113.204 186.459 113.119 186.749 113.324L187.039 113.528C187.329 113.733 187.397 114.125 187.192 114.415C187.073 114.585 186.868 114.687 186.681 114.687ZM179.368 114.125C179.368 114.125 179.334 114.125 179.317 114.125C178.959 114.091 178.703 113.784 178.738 113.426L178.772 113.085C178.806 112.727 179.113 112.488 179.471 112.523C179.828 112.557 180.084 112.88 180.033 113.221L179.999 113.545C179.965 113.886 179.692 114.125 179.368 114.125ZM172.584 113.682C172.328 113.682 172.09 113.528 171.988 113.29C171.851 112.966 172.005 112.591 172.328 112.454L172.652 112.318C172.993 112.199 173.351 112.352 173.488 112.676C173.624 113 173.453 113.375 173.13 113.511L172.823 113.63C172.823 113.63 172.669 113.682 172.584 113.682ZM184.158 113.273C184.158 113.273 183.988 113.273 183.902 113.221L183.596 113.102C183.272 112.966 183.101 112.608 183.238 112.267C183.374 111.943 183.732 111.79 184.073 111.909L184.397 112.045C184.721 112.182 184.874 112.557 184.738 112.88C184.635 113.119 184.397 113.273 184.158 113.273ZM175.311 112.795C175.022 112.795 174.766 112.591 174.698 112.301C174.613 111.96 174.817 111.619 175.175 111.534L175.516 111.449C175.874 111.38 176.198 111.585 176.283 111.926C176.368 112.267 176.147 112.608 175.806 112.693L175.482 112.761C175.482 112.761 175.38 112.778 175.328 112.778L175.311 112.795ZM181.38 112.488C181.38 112.488 181.311 112.488 181.294 112.488L180.971 112.437C180.613 112.386 180.374 112.062 180.425 111.721C180.476 111.363 180.783 111.125 181.141 111.176L181.482 111.227C181.84 111.278 182.078 111.602 182.027 111.96C181.976 112.284 181.703 112.505 181.397 112.505L181.38 112.488ZM178.158 112.369C177.817 112.369 177.544 112.113 177.527 111.773C177.51 111.415 177.783 111.125 178.124 111.091H178.482C178.891 111.091 179.13 111.329 179.147 111.687C179.147 112.045 178.891 112.335 178.533 112.352H178.209L178.175 112.369H178.158ZM179.743 111.295C179.743 111.295 179.658 111.295 179.624 111.295C179.283 111.227 179.044 110.886 179.113 110.545L179.181 110.204C179.249 109.863 179.573 109.642 179.931 109.693C180.272 109.761 180.51 110.102 180.442 110.443L180.374 110.767C180.306 111.074 180.05 111.278 179.743 111.278V111.295ZM180.425 108.483C180.425 108.483 180.306 108.483 180.238 108.449C179.897 108.346 179.709 107.988 179.811 107.648L179.914 107.307C180.016 106.966 180.391 106.795 180.715 106.898C181.056 107 181.226 107.375 181.124 107.699L181.022 108.005C180.936 108.278 180.681 108.466 180.408 108.466L180.425 108.483ZM181.482 105.79C181.38 105.79 181.294 105.773 181.192 105.721C180.868 105.568 180.749 105.176 180.902 104.869L181.073 104.545C181.243 104.238 181.618 104.119 181.942 104.29C182.249 104.46 182.368 104.852 182.198 105.159L182.061 105.449C181.942 105.67 181.721 105.807 181.482 105.807V105.79ZM182.914 103.284C182.794 103.284 182.675 103.25 182.573 103.182C182.283 102.994 182.198 102.602 182.385 102.295L182.573 102.005C182.777 101.716 183.169 101.63 183.459 101.835C183.749 102.04 183.834 102.432 183.63 102.721L183.442 102.994C183.323 103.182 183.118 103.284 182.914 103.284ZM184.601 100.949C184.465 100.949 184.311 100.898 184.192 100.812C183.919 100.591 183.868 100.182 184.107 99.9089L184.328 99.6362C184.55 99.3634 184.959 99.3293 185.232 99.568C185.505 99.7896 185.539 100.199 185.3 100.471L185.096 100.727C184.976 100.88 184.789 100.966 184.601 100.966V100.949ZM186.544 98.8009C186.374 98.8009 186.221 98.7327 186.084 98.6134C185.828 98.3577 185.828 97.9657 186.084 97.71L186.34 97.4714C186.596 97.2327 187.005 97.2327 187.243 97.4884C187.482 97.7441 187.482 98.1532 187.226 98.3918L186.988 98.6134C186.868 98.7327 186.698 98.8009 186.527 98.8009H186.544ZM188.709 96.8918C188.522 96.8918 188.334 96.8066 188.198 96.6532C187.976 96.3805 188.027 95.9714 188.317 95.7498L188.607 95.5282C188.88 95.3237 189.289 95.3748 189.493 95.6646C189.698 95.9543 189.647 96.3464 189.357 96.568L189.101 96.7725C188.982 96.8577 188.846 96.9089 188.709 96.9089V96.8918ZM191.113 95.2896C190.891 95.2896 190.669 95.1702 190.55 94.9657C190.38 94.6589 190.482 94.2668 190.789 94.0964L191.113 93.9259C191.419 93.7555 191.811 93.8748 191.982 94.1816C192.152 94.4884 192.033 94.8805 191.726 95.0509L191.454 95.2043C191.351 95.2555 191.249 95.2896 191.13 95.2896H191.113ZM193.738 94.0793C193.482 94.0793 193.226 93.9259 193.141 93.6532C193.022 93.3123 193.192 92.9543 193.533 92.835L193.874 92.7157C194.215 92.5964 194.573 92.7839 194.692 93.1248C194.811 93.4657 194.624 93.8236 194.283 93.943L193.976 94.0452C193.976 94.0452 193.84 94.0793 193.755 94.0793H193.738ZM196.533 93.3634C196.226 93.3634 195.954 93.1418 195.902 92.818C195.851 92.46 196.09 92.1361 196.448 92.085L196.789 92.0339C197.147 91.9827 197.454 92.2384 197.505 92.5793C197.556 92.9202 197.3 93.2441 196.959 93.2952L196.635 93.3464C196.635 93.3464 196.567 93.3464 196.533 93.3464V93.3634Z" fill="#543952"/>
<path d="M199.738 93.2966C199.738 93.2966 199.704 93.2966 199.687 93.2966H199.516C199.158 93.2454 198.903 92.9386 198.937 92.5806C198.971 92.2227 199.261 91.967 199.636 92.0011H199.806C200.164 92.0522 200.42 92.3591 200.386 92.717C200.351 93.0579 200.079 93.2966 199.755 93.2966H199.738Z" fill="#543952"/>
<path d="M153.727 186.158C153.727 189.704 150.847 192.584 147.301 192.584C143.756 192.584 140.875 189.704 140.875 186.158" stroke="#543952" stroke-width="1.94263" stroke-linecap="round" stroke-linejoin="round"/>
<path d="M122.059 186.158C122.059 189.704 119.179 192.584 115.633 192.584C112.088 192.584 109.207 189.704 109.207 186.158" stroke="#543952" stroke-width="1.94263" stroke-linecap="round" stroke-linejoin="round"/>
<path d="M131.468 205.389C133.172 205.389 134.553 204.008 134.553 202.304C134.553 200.6 133.172 199.219 131.468 199.219C129.764 199.219 128.383 200.6 128.383 202.304C128.383 204.008 129.764 205.389 131.468 205.389Z" fill="#543952"/>
<path d="M128.586 206.188C129.336 206.886 130.359 207.295 131.467 207.295C132.575 207.295 133.614 206.869 134.381 206.188" stroke="#543952" stroke-width="0.971315" stroke-linecap="round" stroke-linejoin="round"/>
<path d="M273.734 73.0977C273.734 78.2642 269.871 82.5248 264.883 83.1617C264.522 83.2042 264.161 83.2325 263.793 83.2396C263.73 83.2396 263.666 83.2396 263.595 83.2396C263.468 83.2396 263.341 83.2396 263.213 83.2396C263.093 83.2396 262.98 83.2254 262.867 83.2183C262.69 83.2042 262.52 83.19 262.343 83.1688C261.954 83.1193 261.572 83.0485 261.197 82.9636C256.754 81.8878 253.457 77.882 253.457 73.1048C253.457 67.4995 257.999 62.9629 263.595 62.9629C269.192 62.9629 273.734 67.5066 273.734 73.1048V73.0977Z" fill="#E7DEE7"/>
<path d="M86.7758 244.197C86.7758 248.288 83.7115 251.662 79.755 252.166C79.4688 252.2 79.1826 252.222 78.8907 252.228C78.8402 252.228 78.7897 252.228 78.7336 252.228C78.6326 252.228 78.5315 252.228 78.4305 252.228C78.3351 252.228 78.2453 252.217 78.1555 252.211C78.0152 252.2 77.8805 252.189 77.7402 252.172C77.4316 252.133 77.1285 252.077 76.8311 252.009C73.3067 251.157 70.6914 247.985 70.6914 244.203C70.6914 239.764 74.2944 236.172 78.7336 236.172C83.1728 236.172 86.7758 239.77 86.7758 244.203V244.197Z" fill="#E7DEE7"/>
<defs>
<linearGradient id="paint0_linear_3836_23307" x1="182.385" y1="192.503" x2="217.021" y2="75.9286" gradientUnits="userSpaceOnUse">
<stop stop-color="#432D41"/>
<stop offset="0.03" stop-color="#4F3043"/>
<stop offset="0.13" stop-color="#783D4B"/>
<stop offset="0.25" stop-color="#9B4852"/>
<stop offset="0.36" stop-color="#B85158"/>
<stop offset="0.49" stop-color="#CE585C"/>
<stop offset="0.62" stop-color="#DD5D5F"/>
<stop offset="0.78" stop-color="#E76061"/>
<stop offset="1" stop-color="#EA6162"/>
</linearGradient>
<linearGradient id="paint1_linear_3836_23307" x1="114.371" y1="190.526" x2="114.371" y2="87.4348" gradientUnits="userSpaceOnUse">
<stop stop-color="#432D41"/>
<stop offset="0.03" stop-color="#4F3043"/>
<stop offset="0.13" stop-color="#783D4B"/>
<stop offset="0.25" stop-color="#9B4852"/>
<stop offset="0.36" stop-color="#B85158"/>
<stop offset="0.49" stop-color="#CE585C"/>
<stop offset="0.62" stop-color="#DD5D5F"/>
<stop offset="0.78" stop-color="#E76061"/>
<stop offset="1" stop-color="#EA6162"/>
</linearGradient>
<linearGradient id="paint2_linear_3836_23307" x1="111.629" y1="201.504" x2="131.129" y2="122.498" gradientUnits="userSpaceOnUse">
<stop stop-color="#432D41"/>
<stop offset="0.03" stop-color="#4F3043"/>
<stop offset="0.13" stop-color="#783D4B"/>
<stop offset="0.25" stop-color="#9B4852"/>
<stop offset="0.36" stop-color="#B85158"/>
<stop offset="0.49" stop-color="#CE585C"/>
<stop offset="0.62" stop-color="#DD5D5F"/>
<stop offset="0.78" stop-color="#E76061"/>
<stop offset="1" stop-color="#EA6162"/>
</linearGradient>
<linearGradient id="paint3_linear_3836_23307" x1="126.153" y1="203.669" x2="276.119" y2="191.6" gradientUnits="userSpaceOnUse">
<stop stop-color="#442D41"/>
<stop offset="0.12" stop-color="#6F3A49"/>
<stop offset="0.25" stop-color="#954651"/>
<stop offset="0.37" stop-color="#B35057"/>
<stop offset="0.51" stop-color="#CB575C"/>
<stop offset="0.65" stop-color="#DC5C5F"/>
<stop offset="0.81" stop-color="#E66061"/>
<stop offset="1" stop-color="#EA6162"/>
</linearGradient>
</defs>
</svg>
