<svg width="283" height="229" viewBox="0 0 283 229" fill="none" xmlns="http://www.w3.org/2000/svg">
<path opacity="0.5" d="M205.337 63.8796C209.573 68.8583 212.549 74.4529 215.396 80.1573C222.262 93.7295 228.887 107.28 233.624 121.755C236.291 129.867 238.588 138.068 239.291 146.491C239.708 150.648 238.38 153.802 234.791 156.394C228.63 160.939 221.744 163.845 214.839 166.992C199.16 173.969 183.387 180.574 167.391 186.917C148.526 194.339 129.455 201.259 109.975 207.173C105.012 208.674 99.9563 209.802 94.8068 210.559C85.36 212.028 79.5351 208.847 74.9589 200.325C67.4995 186.579 62.1691 171.93 57.4681 156.974C55.1355 149.255 53.044 141.557 50.4525 134.058C46.3694 122.186 46.623 110.696 51.4902 99.1295C56.0984 87.7823 59.779 75.8684 64.6282 64.5424C69.3118 53.8076 73.7726 42.8109 80.6639 33.3617C82.1602 31.1914 83.7679 29.1522 85.4871 27.244C88.555 23.516 92.6474 22.3021 97.2429 22.4655C106.323 22.6614 115.406 24.4328 124.212 26.6645C138.487 30.3485 151.877 36.1356 165.674 41.3526C172.981 44.179 180.269 47.2461 187.281 50.7734C193.828 54.0175 200.322 57.9838 205.337 63.8796Z" fill="#D9C8D9"/>
<path d="M93.4963 153.058L96.8896 163.216C96.8896 163.216 101.951 154.209 106.667 153.604C111.354 153 112.332 156.194 108.939 158.381C105.545 160.568 98.7875 170.812 96.2857 175.215C93.7838 179.618 87.0547 158.842 87.0547 158.842" fill="url(#paint0_linear_4539_38319)"/>
<path d="M238.543 166.697L129.007 207.847C127.57 208.394 125.959 207.646 125.413 206.207L76.0659 74.6712C75.5195 73.2324 76.2672 71.621 77.705 71.0742L187.24 29.9244C188.678 29.3777 190.289 30.1258 190.835 31.5646L240.211 163.1C240.728 164.539 239.981 166.15 238.543 166.697Z" fill="#382434"/>
<path d="M241.105 165.748L131.828 206.811C130.304 207.387 128.636 206.61 128.061 205.085L78.7719 73.8083C78.1967 72.2831 78.9732 70.6141 80.4973 70.0386L189.774 28.9751C191.298 28.3996 192.966 29.1765 193.541 30.7017L242.802 161.978C243.377 163.475 242.629 165.172 241.105 165.748Z" fill="#63435B"/>
<path d="M183.179 35.5952L87.8477 71.4219L133.104 192.006L228.436 156.179L183.179 35.5952Z" fill="#382434"/>
<path d="M229.773 155.676L134.414 191.473L89.1797 70.9014L184.509 35.0752L229.773 155.676Z" fill="url(#paint1_linear_4539_38319)"/>
<path opacity="0.19" d="M107.242 96.1673C107.242 96.1673 139.651 153.403 224.628 113.519L214.161 85.6641L107.242 96.1673Z" fill="#382434" fill-opacity="0.5"/>
<path d="M89.6719 70.7288C89.6719 70.7288 153.857 191.847 202.572 57.5206C202.572 57.5206 241.164 76.4552 282.66 49.7798C282.66 49.7798 219.222 130.986 184.541 35.0752L89.6719 70.7288Z" fill="white"/>
<path d="M282.66 49.8086C282.66 49.8086 220.142 125.26 143.246 120.569C143.246 120.569 191.155 120.569 197.654 51.4201C197.626 51.4201 240.934 76.4553 282.66 49.8086Z" fill="url(#paint2_linear_4539_38319)"/>
<path d="M151.641 40.6299L156.414 53.3489L121.676 66.4133L116.902 53.6942L129.642 48.9174C131.137 50.2987 133.323 50.7878 135.364 50.0397C137.377 49.2915 138.7 47.4498 138.93 45.4355L151.641 40.6299Z" fill="#63435B"/>
<path d="M127.743 33.6366C122.855 35.4782 120.382 40.9169 122.222 45.8088C122.538 46.6146 122.941 47.3628 123.43 48.0534C125.874 51.4202 130.332 52.8878 134.386 51.3339C138.47 49.8087 140.857 45.7513 140.483 41.6363C140.425 40.8018 140.224 39.9673 139.908 39.1616C138.067 34.2696 132.603 31.7949 127.743 33.6366ZM133.006 47.6793C130.993 48.4275 128.779 47.9383 127.283 46.557C126.651 45.9815 126.162 45.2621 125.845 44.4276C124.753 41.55 126.219 38.3558 129.095 37.2623C131.971 36.1689 135.163 37.6364 136.256 40.514C136.572 41.3485 136.658 42.2406 136.572 43.0751C136.342 45.1182 135.019 46.9311 133.006 47.6793Z" fill="#382434"/>
<path d="M129.009 33.1473C124.12 34.989 121.647 40.4276 123.488 45.3196C123.804 46.1253 124.207 46.8735 124.696 47.5641C127.14 50.9309 131.597 52.3985 135.652 50.8446C139.735 49.3195 142.122 45.262 141.748 41.1471C141.691 40.3125 141.49 39.478 141.173 38.6723C139.333 33.7804 133.898 31.3056 129.009 33.1473ZM134.272 47.2188C132.259 47.967 130.044 47.4778 128.549 46.0965C127.916 45.521 127.427 44.8016 127.111 43.9671C126.018 41.0895 127.485 37.8954 130.361 36.8019C133.236 35.7084 136.428 37.1759 137.521 40.0536C137.837 40.8881 137.924 41.7801 137.837 42.6146C137.607 44.629 136.313 46.4419 134.272 47.2188Z" fill="#63435B"/>
<path opacity="0.19" d="M154.949 89.549L153.08 94.9589L148.133 92.11C147.184 91.5633 146.696 90.3259 147.127 89.3188C147.357 88.8296 147.731 88.3979 148.306 88.1965C149.399 87.7936 150.635 88.3692 151.067 89.5202C150.635 88.3692 151.182 87.103 152.274 86.7001C152.821 86.4987 153.396 86.5275 153.885 86.7577C154.863 87.2469 155.294 88.4842 154.949 89.549Z" fill="#382434"/>
<path d="M32.6737 193.834C32.6737 193.834 8.97796 194.553 8.28779 176.539C7.59762 158.525 23.4427 150.813 47.1097 145.605C70.8055 140.425 62.7535 119.045 59.1014 113.98C55.4492 108.887 43.3425 99.8509 37.6487 104.426C31.9548 109.002 45.9882 115.304 51.3657 121.001C56.7433 126.699 58.5838 138.094 40.9845 141.864C23.3852 145.634 1.24233 150.209 0.638438 174.41C0.0345416 198.61 28.3027 201.258 35.0893 198.323" fill="#EB6162"/>
<path d="M26.5195 193.344C27.2672 195.185 28.2737 197.372 29.424 199.272C31.8396 199.214 33.8526 198.869 35.1179 198.322L32.6735 193.833C32.6735 193.833 30.0566 193.919 26.5195 193.344Z" fill="#63435B"/>
<path d="M94.8463 136.396C94.8463 136.396 101.317 134.353 105.63 131.532C104.451 119.993 96.8018 105.202 92.3732 99.0443C91.1942 101.951 90.0151 109.173 90.0151 109.173C90.0151 109.173 86.248 109.289 83.9762 109.375C77.8222 100.541 72.991 98.4688 72.991 98.4688C72.991 98.4688 74.4864 132.568 71.5819 140.885C68.6774 149.201 63.5012 154.381 47.1097 155.676C30.7182 156.971 23.3852 168.078 27.5837 182.207C31.7822 196.336 39.978 208.307 39.978 208.307H72.9335C72.9335 208.307 71.6969 205.286 69.8565 203.358C68.016 201.43 60.1654 202.178 55.5068 204.106C62.8398 197.746 74.4864 147.906 42.9975 168.078C42.1348 193.977 56.6858 206.379 56.6858 206.379C56.6858 206.379 76.8444 207.789 85.5866 190.84C94.2999 173.948 94.8463 136.396 94.8463 136.396Z" fill="#EB6162"/>
<path d="M72.9033 208.365C72.1844 206.811 71.3505 205.286 70.2289 203.963C69.7113 203.243 68.9636 202.84 68.1297 202.668C64.2475 201.92 59.1863 202.869 55.5629 204.337C55.3903 204.394 55.2178 204.164 55.3904 204.049C57.1733 202.322 58.2085 199.934 59.1863 197.689C62.3783 190.006 66.7781 171.849 60.2503 165.316C55.4766 161 47.5685 165.374 42.9961 168.136C70.2865 150.151 65.9729 186.265 57.8922 201.258C57.2595 202.351 56.5694 203.445 55.5916 204.308L55.4191 204.02C59.1 202.581 64.305 201.661 68.1872 202.524C69.0499 202.725 69.8264 203.186 70.344 203.934C71.408 205.229 72.2419 206.783 72.9033 208.365Z" fill="#002F68"/>
<path d="M72.0117 168.078C72.0117 168.078 76.2102 200.71 78.0219 204.681C79.8336 208.652 82.7956 208.365 84.3772 208.365C84.3772 208.365 80.0637 194.897 81.0702 168.999" fill="url(#paint3_linear_4539_38319)"/>
<path d="M89.0749 122.148C90.6808 120.541 90.6808 117.936 89.0749 116.329C87.469 114.722 84.8653 114.722 83.2593 116.329C81.6534 117.936 81.6534 120.541 83.2593 122.148C84.8652 123.755 87.469 123.755 89.0749 122.148Z" fill="white"/>
<path d="M87.9505 121.25C89.0564 119.897 88.8565 117.903 87.5042 116.796C86.1518 115.69 84.159 115.89 83.0531 117.243C81.9473 118.596 82.1471 120.59 83.4995 121.697C84.8518 122.804 86.8446 122.604 87.9505 121.25Z" fill="#00071E"/>
<path d="M101.109 120.242C101.658 118.037 100.318 115.803 98.1141 115.253C95.9104 114.703 93.6782 116.044 93.1284 118.249C92.5785 120.455 93.9192 122.688 96.1229 123.238C98.3266 123.789 100.559 122.447 101.109 120.242Z" fill="white"/>
<path d="M82.0469 119.246C82.0469 116.973 83.8873 115.131 86.1591 115.131C88.4309 115.131 90.2714 116.973 90.2714 119.246" stroke="#00071E" stroke-width="0.762415" stroke-miterlimit="10" stroke-linecap="round" stroke-linejoin="round"/>
<path d="M92.9766 119.246C92.9766 116.973 94.817 115.131 97.0888 115.131C99.3606 115.131 101.201 116.973 101.201 119.246" stroke="#00071E" stroke-width="0.762415" stroke-miterlimit="10" stroke-linecap="round" stroke-linejoin="round"/>
<path d="M99.6762 119.754C99.962 117.997 98.7705 116.341 97.0149 116.055C95.2592 115.769 93.6042 116.962 93.3184 118.718C93.0325 120.475 94.224 122.131 95.9797 122.417C97.7354 122.703 99.3903 121.511 99.6762 119.754Z" fill="#00071E"/>
<path opacity="0.56" d="M88.664 117.577C88.664 118.037 88.2902 118.411 87.83 118.411C87.3699 118.411 86.9961 118.037 86.9961 117.577C86.9961 117.116 87.3699 116.742 87.83 116.742C88.2902 116.742 88.664 117.116 88.664 117.577Z" fill="white"/>
<path opacity="0.56" d="M99.8476 117.664C99.8476 118.124 99.4738 118.498 99.0136 118.498C98.5535 118.498 98.1797 118.124 98.1797 117.664C98.1797 117.203 98.5535 116.829 99.0136 116.829C99.4738 116.829 99.8476 117.203 99.8476 117.664Z" fill="white"/>
<path d="M82.0486 109.807C82.0486 109.807 75.6646 110.67 74.8019 110.814C74.2842 103.735 74.3417 101.03 74.3417 101.03C74.3417 101.03 79.2017 104.714 82.0486 109.807Z" fill="#63435B"/>
<path d="M91.7109 109.404H97.3185C97.3185 109.404 93.9252 102.901 93.005 101.778C92.2573 104.224 91.7109 109.404 91.7109 109.404Z" fill="#63435B"/>
<path d="M95.6797 125.835C95.6797 125.835 103.502 124.972 110.375 125.518" stroke="#002F68" stroke-width="0.20333" stroke-miterlimit="10" stroke-linecap="round" stroke-linejoin="round"/>
<path d="M96.1992 126.814C96.1992 126.814 105.488 126.728 112.619 127.936" stroke="#002F68" stroke-width="0.20333" stroke-miterlimit="10" stroke-linecap="round" stroke-linejoin="round"/>
<path d="M96.4844 127.677C96.4844 127.677 104.162 128.713 110.058 130.468" stroke="#002F68" stroke-width="0.20333" stroke-miterlimit="10" stroke-linecap="round" stroke-linejoin="round"/>
<path d="M89.6981 126.037C89.6981 126.037 81.6173 125.289 75.1758 126.44" stroke="#002F68" stroke-width="0.20333" stroke-miterlimit="10" stroke-linecap="round" stroke-linejoin="round"/>
<path d="M90.5037 127.303C90.5037 127.303 81.5602 127.475 75.4062 129.49" stroke="#002F68" stroke-width="0.20333" stroke-miterlimit="10" stroke-linecap="round" stroke-linejoin="round"/>
<path d="M90.2166 128.396C90.2166 128.396 80.8418 130.209 75.9531 132.828" stroke="#002F68" stroke-width="0.20333" stroke-miterlimit="10" stroke-linecap="round" stroke-linejoin="round"/>
<path d="M69.1371 208.365C69.1371 208.365 67.2679 204.826 66.3477 204.222" stroke="#002F68" stroke-width="0.762415" stroke-miterlimit="10" stroke-linecap="round" stroke-linejoin="round"/>
<path d="M71.4677 208.365C71.4677 208.365 69.5697 204.739 68.707 204.049" stroke="#002F68" stroke-width="0.762415" stroke-miterlimit="10" stroke-linecap="round" stroke-linejoin="round"/>
<path d="M95.6808 147.158L71.4387 139.359L69.1094 144.165L94.6456 154.87C94.6743 154.87 95.7958 150.294 95.6808 147.158Z" fill="#63435B"/>
<path d="M90.2734 130.468L92.4302 128.598C92.7465 128.339 93.2066 128.31 93.523 128.569L95.6797 130.324" stroke="#63435B" stroke-width="0.48948" stroke-miterlimit="10"/>
<path d="M91.6836 124.54H94.0417L93.0352 126.41L91.6836 124.54Z" fill="#63435B"/>
<path d="M93.0352 125.461V128.396" stroke="#63435B" stroke-width="0.48948" stroke-miterlimit="10"/>
<g opacity="0.19">
<path d="M131.948 76.0621L132.217 76.7799L128.693 78.1043L128.424 77.3866L131.948 76.0621ZM126.373 71.381L128.871 78.0373L127.989 78.3688L125.491 71.7125L126.373 71.381ZM130.327 73.1606L130.596 73.8784L127.538 75.0276L127.269 74.3098L130.327 73.1606ZM129.673 70.1407L129.945 70.863L126.466 72.1703L126.195 71.448L129.673 70.1407ZM132.963 68.9046L133.817 68.5834L138.034 73.1905L138.173 66.9463L139.033 66.6234L138.825 74.2966L138.158 74.5474L132.963 68.9046ZM132.684 69.0094L133.438 68.7259L135.085 72.7392L136.06 75.3359L135.182 75.6657L132.684 69.0094ZM138.553 66.8037L139.307 66.5203L141.805 73.1766L140.928 73.5064L139.953 70.9097L138.553 66.8037ZM146.702 68.3578L144.924 69.026L144.654 68.3083L146.433 67.6401C146.777 67.5107 147.035 67.351 147.207 67.1611C147.379 66.9712 147.478 66.7604 147.502 66.5287C147.529 66.2959 147.496 66.0545 147.402 65.8046C147.316 65.576 147.186 65.38 147.009 65.2167C146.836 65.0522 146.62 64.949 146.361 64.9073C146.101 64.8625 145.799 64.9048 145.455 65.0342L143.882 65.6251L146.109 71.5592L145.227 71.8907L142.729 65.2343L145.183 64.3119C145.686 64.1229 146.144 64.05 146.557 64.0932C146.969 64.1364 147.323 64.2781 147.618 64.5183C147.913 64.7556 148.133 65.0707 148.281 65.4639C148.441 65.8906 148.488 66.2886 148.421 66.6579C148.355 67.0272 148.178 67.3564 147.89 67.6454C147.601 67.9314 147.205 68.1689 146.702 68.3578ZM152.966 61.3872L155.464 68.0435L154.596 68.3699L152.097 61.7135L152.966 61.3872ZM155.105 60.5832L155.376 61.3056L150.234 63.2381L149.963 62.5158L155.105 60.5832ZM158.344 59.366L161.326 62.0586L161.804 58.0656L162.805 57.6894L162.075 62.7211L163.009 65.2081L162.127 65.5396L161.193 63.0527L157.334 59.7456L158.344 59.366Z" fill="#303030"/>
</g>
<path d="M123.985 90.0324L123.563 84.8911L124.203 84.6507L124.51 86.5956L124.909 91.9804L124.274 92.2192L123.985 90.0324ZM120.875 85.9012L123.635 90.0595L124.74 92.0439L124.109 92.281L119.997 86.231L120.875 85.9012ZM127.619 88.557L126.941 83.6217L127.823 83.2902L128.712 90.5512L128.081 90.7882L127.619 88.557ZM124.299 84.6146L127.326 88.7767L128.547 90.613L127.912 90.8518L124.72 86.5166L123.668 84.8516L124.299 84.6146ZM131.619 81.8634L134.118 88.5197L133.235 88.8512L130.737 82.1949L131.619 81.8634ZM140.51 84.1978C140.451 84.0423 140.376 83.9143 140.282 83.8138C140.191 83.7091 140.067 83.6303 139.912 83.5774C139.76 83.5234 139.563 83.4911 139.323 83.4806C139.085 83.469 138.793 83.4764 138.444 83.5029C138.079 83.5291 137.741 83.5325 137.431 83.5133C137.12 83.491 136.841 83.4377 136.594 83.3532C136.347 83.2688 136.135 83.1449 135.959 82.9815C135.783 82.8182 135.646 82.607 135.549 82.3479C135.452 82.0888 135.415 81.8295 135.44 81.57C135.464 81.3105 135.545 81.0628 135.682 80.8268C135.822 80.5866 136.013 80.3687 136.256 80.1731C136.499 79.9774 136.791 79.8155 137.132 79.6872C137.632 79.4994 138.092 79.4362 138.511 79.4977C138.932 79.5549 139.292 79.7031 139.591 79.9422C139.888 80.1783 140.102 80.4701 140.232 80.8175L139.355 81.1473C139.261 80.8974 139.124 80.6965 138.946 80.5446C138.766 80.3896 138.547 80.2979 138.29 80.2695C138.031 80.238 137.736 80.2847 137.403 80.4095C137.09 80.5275 136.848 80.6721 136.68 80.8433C136.511 81.0145 136.407 81.1998 136.367 81.3991C136.33 81.5973 136.35 81.8 136.428 82.0072C136.481 82.1474 136.558 82.2645 136.659 82.3586C136.762 82.4485 136.895 82.5187 137.056 82.5693C137.221 82.6187 137.416 82.6479 137.642 82.6569C137.871 82.6648 138.137 82.6552 138.44 82.6284C138.857 82.593 139.228 82.5894 139.552 82.6173C139.875 82.6453 140.156 82.7084 140.395 82.8066C140.635 82.9005 140.837 83.0351 141 83.2103C141.165 83.3813 141.296 83.5963 141.393 83.8554C141.495 84.1266 141.532 84.3926 141.505 84.6532C141.477 84.9139 141.391 85.1603 141.245 85.3925C141.099 85.6247 140.899 85.8372 140.645 86.0302C140.392 86.219 140.091 86.3793 139.74 86.511C139.433 86.6266 139.113 86.6979 138.783 86.7248C138.455 86.7505 138.137 86.7239 137.829 86.6448C137.525 86.5646 137.252 86.427 137.012 86.2321C136.774 86.033 136.593 85.7673 136.468 85.4351L137.346 85.1053C137.431 85.3338 137.549 85.5138 137.699 85.6452C137.848 85.7735 138.019 85.8624 138.212 85.9118C138.407 85.96 138.612 85.9734 138.826 85.952C139.043 85.9263 139.258 85.8734 139.471 85.7932C139.779 85.6775 140.023 85.537 140.204 85.3715C140.386 85.206 140.502 85.0233 140.552 84.8236C140.605 84.6228 140.591 84.4142 140.51 84.1978ZM147.948 78.9926L148.217 79.7103L144.615 81.064L144.346 80.3462L147.948 78.9926ZM143.409 77.4328L145.907 84.0892L145.025 84.4207L142.526 77.7644L143.409 77.4328ZM147.641 75.8421L150.14 82.4985L149.262 82.8283L146.764 76.172L147.641 75.8421ZM157.346 78.9711L157.616 79.6889L154.288 80.9394L154.019 80.2217L157.346 78.9711ZM151.964 74.2178L154.462 80.8741L153.58 81.2057L151.081 74.5493L151.964 74.2178ZM158.946 71.5937L161.444 78.25L160.562 78.5816L158.064 71.9252L158.946 71.5937ZM167.837 73.9281C167.778 73.7726 167.702 73.6447 167.609 73.5441C167.518 73.4394 167.394 73.3606 167.239 73.3077C167.086 73.2537 166.89 73.2214 166.649 73.2109C166.412 73.1993 166.119 73.2067 165.771 73.2332C165.405 73.2594 165.068 73.2628 164.758 73.2436C164.447 73.2213 164.168 73.168 163.921 73.0835C163.674 72.9991 163.462 72.8752 163.286 72.7119C163.11 72.5485 162.973 72.3373 162.876 72.0782C162.779 71.8192 162.742 71.5599 162.767 71.3003C162.791 71.0408 162.872 70.7931 163.009 70.5571C163.148 70.3169 163.34 70.099 163.583 69.9034C163.826 69.7077 164.118 69.5458 164.459 69.4175C164.959 69.2297 165.418 69.1665 165.838 69.228C166.259 69.2853 166.619 69.4334 166.917 69.6726C167.215 69.9086 167.428 70.2004 167.559 70.5478L166.681 70.8776C166.587 70.6277 166.451 70.4268 166.273 70.2749C166.093 70.1199 165.874 70.0282 165.616 69.9998C165.358 69.9683 165.062 70.015 164.73 70.1399C164.416 70.2578 164.175 70.4024 164.006 70.5736C163.838 70.7448 163.733 70.9301 163.693 71.1294C163.656 71.3276 163.677 71.5303 163.755 71.7375C163.807 71.8777 163.884 71.9949 163.986 72.0889C164.089 72.1788 164.221 72.249 164.383 72.2996C164.547 72.349 164.743 72.3782 164.969 72.3872C165.198 72.3951 165.463 72.3856 165.766 72.3587C166.184 72.3234 166.555 72.3197 166.878 72.3477C167.202 72.3757 167.483 72.4387 167.721 72.5369C167.962 72.6309 168.163 72.7654 168.327 72.9406C168.492 73.1116 168.623 73.3266 168.72 73.5857C168.822 73.8569 168.859 74.1229 168.832 74.3836C168.804 74.6442 168.718 74.8906 168.572 75.1228C168.426 75.355 168.226 75.5676 167.971 75.7605C167.719 75.9493 167.417 76.1096 167.067 76.2413C166.759 76.3569 166.44 76.4282 166.109 76.4551C165.782 76.4809 165.464 76.4542 165.156 76.3751C164.851 76.2949 164.579 76.1574 164.339 75.9624C164.101 75.7633 163.919 75.4976 163.795 75.1654L164.672 74.8356C164.758 75.0642 164.876 75.2441 165.026 75.3755C165.175 75.5038 165.346 75.5927 165.538 75.6421C165.734 75.6904 165.939 75.7038 166.153 75.6823C166.37 75.6566 166.584 75.6037 166.798 75.5235C167.105 75.4079 167.35 75.2673 167.531 75.1018C167.713 74.9363 167.828 74.7537 167.878 74.554C167.932 74.3531 167.918 74.1445 167.837 73.9281ZM172.312 66.5705L174.811 73.2268L173.942 73.5532L171.444 66.8969L172.312 66.5705ZM174.452 65.7666L174.723 66.4889L169.58 68.4214L169.309 67.6991L174.452 65.7666Z" fill="#D9D5D8"/>
<path d="M150.461 87.9082L151.381 90.4117L152.675 89.8074L152.531 92.2822" stroke="white" stroke-width="0.48948" stroke-miterlimit="10"/>
<defs>
<linearGradient id="paint0_linear_4539_38319" x1="87.0507" y1="164.434" x2="110.957" y2="164.434" gradientUnits="userSpaceOnUse">
<stop stop-color="#472C42"/>
<stop offset="0.1111" stop-color="#653346"/>
<stop offset="0.3343" stop-color="#9B3E4E"/>
<stop offset="0.5426" stop-color="#C54855"/>
<stop offset="0.7295" stop-color="#E44E59"/>
<stop offset="0.8882" stop-color="#F6535C"/>
<stop offset="1" stop-color="#FD545D"/>
</linearGradient>
<linearGradient id="paint1_linear_4539_38319" x1="85.676" y1="100.881" x2="234.148" y2="118.253" gradientUnits="userSpaceOnUse">
<stop stop-color="#F0C4E7"/>
<stop offset="0.0763906" stop-color="#F2CBEA"/>
<stop offset="0.4444" stop-color="#F9E7F5"/>
<stop offset="0.7648" stop-color="#FDF9FC"/>
<stop offset="1" stop-color="white"/>
</linearGradient>
<linearGradient id="paint2_linear_4539_38319" x1="187.715" y1="140.776" x2="238.215" y2="29.6132" gradientUnits="userSpaceOnUse">
<stop stop-color="white"/>
<stop offset="0.6264" stop-color="#F5D7EF"/>
<stop offset="1" stop-color="#F0C4E7"/>
</linearGradient>
<linearGradient id="paint3_linear_4539_38319" x1="78.1918" y1="208.363" x2="78.1918" y2="168.071" gradientUnits="userSpaceOnUse">
<stop stop-color="#472C42"/>
<stop offset="0.833333" stop-color="#EB6162"/>
</linearGradient>
</defs>
</svg>
