<svg width="24" height="24" viewBox="0 0 24 24" fill="none" xmlns="http://www.w3.org/2000/svg">
<g clip-path="url(#clip0_3947_30123)">
<circle cx="12" cy="12" r="12" fill="#E6E6E6"/>
<path d="M4.5 23C4.5 23 3 23 3 21.5C3 20 4.5 15.5 12 15.5C19.5 15.5 21 20 21 21.5C21 23 19.5 23 19.5 23L11.5 25L4.5 23ZM12 14C13.1935 14 14.3381 13.5259 15.182 12.682C16.0259 11.8381 16.5 10.6935 16.5 9.5C16.5 8.30653 16.0259 7.16193 15.182 6.31802C14.3381 5.47411 13.1935 5 12 5C10.8065 5 9.66193 5.47411 8.81802 6.31802C7.97411 7.16193 7.5 8.30653 7.5 9.5C7.5 10.6935 7.97411 11.8381 8.81802 12.682C9.66193 13.5259 10.8065 14 12 14Z" fill="white"/>
</g>
<defs>
<clipPath id="clip0_3947_30123">
<rect width="24" height="24" fill="white"/>
</clipPath>
</defs>
</svg>
