<svg width="24" height="24" viewBox="0 0 24 24" fill="none" xmlns="http://www.w3.org/2000/svg">
<path d="M15.7912 9.47307C16.8377 9.47307 17.686 8.62476 17.686 7.57833C17.686 6.5319 16.8377 5.68359 15.7912 5.68359C14.7448 5.68359 13.8965 6.5319 13.8965 7.57833C13.8965 8.62476 14.7448 9.47307 15.7912 9.47307Z" stroke="black" stroke-width="1.26316" stroke-linecap="round" stroke-linejoin="round"/>
<path d="M8.21114 13.8947C9.25758 13.8947 10.1059 13.0464 10.1059 12C10.1059 10.9535 9.25758 10.1052 8.21114 10.1052C7.16471 10.1052 6.31641 10.9535 6.31641 12C6.31641 13.0464 7.16471 13.8947 8.21114 13.8947Z" stroke="black" stroke-width="1.26316" stroke-linecap="round" stroke-linejoin="round"/>
<path d="M15.7912 18.3168C16.8377 18.3168 17.686 17.4685 17.686 16.4221C17.686 15.3756 16.8377 14.5273 15.7912 14.5273C14.7448 14.5273 13.8965 15.3756 13.8965 16.4221C13.8965 17.4685 14.7448 18.3168 15.7912 18.3168Z" stroke="black" stroke-width="1.26316" stroke-linecap="round" stroke-linejoin="round"/>
<path d="M9.84766 12.9531L14.1613 15.4668" stroke="black" stroke-width="1.26316" stroke-linecap="round" stroke-linejoin="round"/>
<path d="M14.155 8.53516L9.84766 11.0488" stroke="black" stroke-width="1.26316" stroke-linecap="round" stroke-linejoin="round"/>
</svg>
